<?xml version="1.0" standalone="yes"?>

<svg version="1.1" viewBox="0.0 0.0 960.0 720.0" fill="none" stroke="none" stroke-linecap="square" stroke-miterlimit="10" xmlns="http://www.w3.org/2000/svg" xmlns:xlink="http://www.w3.org/1999/xlink"><clipPath id="p.0"><path d="m0 0l960.0 0l0 720.0l-960.0 0l0 -720.0z" clip-rule="nonzero"></path></clipPath><g clip-path="url(#p.0)"><path fill="#000000" fill-opacity="0.0" d="m0 0l960.0 0l0 720.0l-960.0 0z" fill-rule="evenodd"></path><path fill="#134f5c" d="m186.28346 417.13242l587.4331 0l0 116.53543l-587.4331 0z" fill-rule="evenodd"></path><path stroke="#ffffff" stroke-width="1.0" stroke-linejoin="round" stroke-linecap="butt" d="m186.28346 417.13242l587.4331 0l0 116.53543l-587.4331 0z" fill-rule="evenodd"></path><path fill="#ffffff" d="m448.31168 482.32013q-0.328125 -0.859375 -0.625 -1.6875q-0.28125 -0.828125 -0.578125 -1.671875l-5.96875 0l-1.1875 3.359375l-1.921875 0q0.75 -2.09375 1.40625 -3.859375q0.671875 -1.78125 1.3125 -3.375q0.640625 -1.59375 1.265625 -3.046875q0.625 -1.453125 1.3125 -2.890625l1.6875 0q0.6875 1.4375 1.3125 2.890625q0.625 1.453125 1.265625 3.046875q0.640625 1.59375 1.296875 3.375q0.671875 1.765625 1.421875 3.859375l-2.0 0zm-1.734375 -4.890625q-0.609375 -1.640625 -1.21875 -3.1875q-0.59375 -1.5625 -1.234375 -2.984375q-0.65625 1.421875 -1.265625 2.984375q-0.59375 1.546875 -1.1875 3.1875l4.90625 0zm8.15033 5.078125q-1.640625 -0.03125 -2.328125 -0.6875q-0.671875 -0.671875 -0.671875 -2.078125l0 -11.859375l1.765625 -0.3125l0 11.875q0 0.4375 0.078125 0.734375q0.078125 0.28125 0.25 0.453125q0.171875 0.171875 0.453125 0.265625q0.28125 0.078125 0.703125 0.125l-0.25 1.484375zm8.983795 -5.109375q0 -1.734375 -0.859375 -2.65625q-0.84375 -0.9375 -2.265625 -0.9375q-0.796875 0 -1.25 0.0625q-0.453125 0.0625 -0.71875 0.125l0 6.234375q0.328125 0.265625 0.9375 0.515625q0.609375 0.25 1.328125 0.25q0.765625 0 1.296875 -0.265625q0.546875 -0.28125 0.890625 -0.765625q0.34375 -0.484375 0.484375 -1.140625q0.15625 -0.65625 0.15625 -1.421875zm1.84375 0q0 1.125 -0.296875 2.078125q-0.28125 0.9375 -0.859375 1.625q-0.5625 0.6875 -1.390625 1.078125q-0.828125 0.375 -1.890625 0.375q-0.859375 0 -1.515625 -0.234375q-0.65625 -0.234375 -0.984375 -0.4375l0 3.953125l-1.765625 0l0 -13.09375q0.625 -0.15625 1.5625 -0.328125q0.953125 -0.1875 2.1875 -0.1875q1.140625 0 2.046875 0.375q0.921875 0.359375 1.5625 1.03125q0.640625 0.65625 0.984375 1.609375q0.359375 0.953125 0.359375 2.15625zm4.051056 4.921875l-1.765625 0l0 -9.875l1.765625 0l0 9.875zm-0.890625 -11.671875q-0.46875 0 -0.8125 -0.3125q-0.328125 -0.3125 -0.328125 -0.84375q0 -0.53125 0.328125 -0.84375q0.34375 -0.3125 0.8125 -0.3125q0.484375 0 0.8125 0.3125q0.328125 0.3125 0.328125 0.84375q0 0.53125 -0.328125 0.84375q-0.328125 0.3125 -0.8125 0.3125zm3.8450317 2.078125q0.609375 -0.15625 1.609375 -0.328125q1.015625 -0.171875 2.328125 -0.171875q1.171875 0 1.953125 0.34375q0.78125 0.328125 1.25 0.921875q0.46875 0.59375 0.65625 1.4375q0.1875 0.828125 0.1875 1.84375l0 5.546875l-1.765625 0l0 -5.171875q0 -0.90625 -0.125 -1.546875q-0.125 -0.65625 -0.40625 -1.046875q-0.28125 -0.40625 -0.765625 -0.578125q-0.46875 -0.1875 -1.171875 -0.1875q-0.28125 0 -0.59375 0.015625q-0.296875 0.015625 -0.578125 0.046875q-0.28125 0.03125 -0.5 0.078125q-0.21875 0.03125 -0.3125 0.046875l0 8.34375l-1.765625 0l0 -9.59375zm10.161804 4.671875q0 -1.3125 0.375 -2.28125q0.390625 -0.984375 1.015625 -1.625q0.625 -0.65625 1.4375 -0.96875q0.8125 -0.328125 1.671875 -0.328125q2.0 0 3.0625 1.25q1.0625 1.234375 1.0625 3.78125q0 0.109375 0 0.296875q0 0.1875 -0.015625 0.328125l-6.765625 0q0.109375 1.546875 0.890625 2.34375q0.78125 0.796875 2.4375 0.796875q0.921875 0 1.5625 -0.15625q0.640625 -0.171875 0.953125 -0.328125l0.25 1.484375q-0.3125 0.171875 -1.125 0.359375q-0.8125 0.203125 -1.828125 0.203125q-1.296875 0 -2.234375 -0.390625q-0.9375 -0.390625 -1.546875 -1.078125q-0.609375 -0.6875 -0.90625 -1.625q-0.296875 -0.9375 -0.296875 -2.0625zm6.78125 -0.96875q0.015625 -1.203125 -0.609375 -1.96875q-0.609375 -0.765625 -1.6875 -0.765625q-0.609375 0 -1.078125 0.234375q-0.46875 0.234375 -0.796875 0.625q-0.3125 0.375 -0.5 0.875q-0.171875 0.484375 -0.234375 1.0l4.90625 0zm11.285339 4.59375q1.6875 0 2.421875 -0.65625q0.734375 -0.671875 0.734375 -1.796875q0 -0.71875 -0.3125 -1.203125q-0.296875 -0.5 -0.796875 -0.796875q-0.484375 -0.296875 -1.140625 -0.40625q-0.65625 -0.125 -1.34375 -0.125l-0.453125 0l0 -1.453125l0.625 0q0.46875 0 0.96875 -0.09375q0.515625 -0.09375 0.921875 -0.34375q0.421875 -0.25 0.6875 -0.671875q0.265625 -0.421875 0.265625 -1.078125q0 -0.53125 -0.1875 -0.90625q-0.1875 -0.375 -0.5 -0.625q-0.3125 -0.25 -0.734375 -0.34375q-0.40625 -0.109375 -0.859375 -0.109375q-0.90625 0 -1.546875 0.265625q-0.640625 0.265625 -1.078125 0.546875l-0.671875 -1.34375q0.21875 -0.15625 0.5625 -0.328125q0.359375 -0.1875 0.796875 -0.34375q0.4375 -0.15625 0.9375 -0.25q0.515625 -0.109375 1.0625 -0.109375q1.046875 0 1.796875 0.265625q0.765625 0.25 1.25 0.71875q0.5 0.453125 0.75 1.09375q0.25 0.640625 0.25 1.375q0 1.03125 -0.59375 1.765625q-0.578125 0.71875 -1.421875 1.109375q0.515625 0.15625 0.984375 0.4375q0.484375 0.28125 0.828125 0.71875q0.359375 0.4375 0.578125 1.015625q0.21875 0.5625 0.21875 1.265625q0 0.859375 -0.296875 1.59375q-0.296875 0.71875 -0.921875 1.25q-0.609375 0.53125 -1.546875 0.84375q-0.921875 0.296875 -2.203125 0.296875q-0.484375 0 -1.015625 -0.078125q-0.515625 -0.0625 -0.984375 -0.1875q-0.453125 -0.109375 -0.796875 -0.21875q-0.328125 -0.125 -0.484375 -0.203125l0.34375 -1.53125q0.3125 0.15625 1.0625 0.40625q0.765625 0.234375 1.84375 0.234375zm9.834595 0.265625q0 0.515625 -0.34375 0.90625q-0.34375 0.375 -0.921875 0.375q-0.59375 0 -0.9375 -0.375q-0.34375 -0.390625 -0.34375 -0.90625q0 -0.5 0.34375 -0.875q0.34375 -0.390625 0.9375 -0.390625q0.578125 0 0.921875 0.390625q0.34375 0.375 0.34375 0.875zm4.761322 -7.0625q2.875 0.109375 4.203125 1.25q1.34375 1.140625 1.34375 3.09375q0 0.875 -0.296875 1.625q-0.296875 0.734375 -0.890625 1.265625q-0.59375 0.53125 -1.515625 0.84375q-0.90625 0.296875 -2.15625 0.296875q-0.5 0 -1.015625 -0.078125q-0.515625 -0.0625 -0.953125 -0.1875q-0.421875 -0.109375 -0.765625 -0.21875q-0.34375 -0.125 -0.5 -0.203125l0.34375 -1.53125q0.328125 0.15625 1.046875 0.40625q0.734375 0.234375 1.796875 0.234375q0.859375 0 1.4375 -0.1875q0.578125 -0.1875 0.9375 -0.5q0.359375 -0.328125 0.515625 -0.75q0.171875 -0.4375 0.171875 -0.90625q0 -0.734375 -0.25 -1.28125q-0.25 -0.5625 -0.875 -0.9375q-0.625 -0.390625 -1.671875 -0.59375q-1.046875 -0.203125 -2.640625 -0.203125q0.125 -0.921875 0.1875 -1.734375q0.0625 -0.828125 0.109375 -1.59375q0.0625 -0.78125 0.09375 -1.546875q0.046875 -0.78125 0.09375 -1.640625l6.34375 0l0 1.5l-4.8125 0q-0.015625 0.296875 -0.0625 0.78125q-0.03125 0.484375 -0.078125 1.015625q-0.03125 0.515625 -0.078125 1.015625q-0.03125 0.484375 -0.0625 0.765625z" fill-rule="nonzero"></path><path fill="#3c78d8" d="m186.28346 292.5706l587.4331 0l0 124.566925l-587.4331 0z" fill-rule="evenodd"></path><path stroke="#ffffff" stroke-width="1.0" stroke-linejoin="round" stroke-linecap="butt" d="m186.28346 292.5706l587.4331 0l0 124.566925l-587.4331 0z" fill-rule="evenodd"></path><path fill="#ffffff" d="m445.44904 331.10468q2.4375 0 2.4375 -1.65625q0 -0.515625 -0.21875 -0.875q-0.21875 -0.359375 -0.59375 -0.625q-0.359375 -0.265625 -0.84375 -0.453125q-0.46875 -0.1875 -0.984375 -0.390625q-0.609375 -0.203125 -1.15625 -0.46875q-0.546875 -0.265625 -0.953125 -0.625q-0.390625 -0.359375 -0.625 -0.84375q-0.234375 -0.5 -0.234375 -1.203125q0 -1.46875 0.984375 -2.28125q1.0 -0.8125 2.75 -0.8125q1.0 0 1.828125 0.21875q0.828125 0.21875 1.203125 0.46875l-0.484375 1.265625q-0.34375 -0.203125 -1.015625 -0.40625q-0.65625 -0.203125 -1.53125 -0.203125q-0.453125 0 -0.84375 0.09375q-0.375 0.09375 -0.671875 0.296875q-0.28125 0.1875 -0.453125 0.484375q-0.15625 0.296875 -0.15625 0.6875q0 0.453125 0.171875 0.765625q0.171875 0.296875 0.484375 0.53125q0.328125 0.234375 0.75 0.421875q0.421875 0.1875 0.9375 0.375q0.71875 0.296875 1.3125 0.59375q0.609375 0.28125 1.046875 0.6875q0.4375 0.390625 0.671875 0.953125q0.25 0.546875 0.25 1.328125q0 1.453125 -1.0625 2.234375q-1.0625 0.78125 -3.0 0.78125q-0.65625 0 -1.21875 -0.09375q-0.546875 -0.078125 -0.984375 -0.1875q-0.421875 -0.125 -0.734375 -0.265625q-0.3125 -0.140625 -0.484375 -0.234375l0.453125 -1.28125q0.375 0.21875 1.125 0.46875q0.75 0.25 1.84375 0.25zm5.840149 1.109375l0 -12.15625l1.484375 -0.265625l0 4.265625q0.421875 -0.15625 0.890625 -0.25q0.46875 -0.09375 0.9375 -0.09375q0.984375 0 1.640625 0.28125q0.65625 0.28125 1.046875 0.796875q0.40625 0.5 0.5625 1.203125q0.15625 0.703125 0.15625 1.546875l0 4.671875l-1.484375 0l0 -4.359375q0 -0.765625 -0.109375 -1.296875q-0.109375 -0.546875 -0.34375 -0.875q-0.234375 -0.34375 -0.640625 -0.5q-0.390625 -0.15625 -0.984375 -0.15625q-0.25 0 -0.5 0.03125q-0.25 0.03125 -0.484375 0.078125q-0.234375 0.03125 -0.421875 0.09375q-0.1875 0.046875 -0.265625 0.078125l0 6.90625l-1.484375 0zm8.667267 -4.140625q0 -1.109375 0.3125 -1.921875q0.328125 -0.828125 0.859375 -1.375q0.53125 -0.546875 1.21875 -0.8125q0.6875 -0.28125 1.40625 -0.28125q1.671875 0 2.5625 1.046875q0.90625 1.046875 0.90625 3.203125q0 0.09375 0 0.25q0 0.140625 -0.015625 0.265625l-5.6875 0q0.09375 1.296875 0.75 1.96875q0.65625 0.671875 2.046875 0.671875q0.78125 0 1.3125 -0.125q0.546875 -0.140625 0.8125 -0.265625l0.203125 1.25q-0.265625 0.140625 -0.953125 0.296875q-0.671875 0.15625 -1.53125 0.15625q-1.09375 0 -1.890625 -0.328125q-0.78125 -0.328125 -1.296875 -0.890625q-0.515625 -0.578125 -0.765625 -1.375q-0.25 -0.796875 -0.25 -1.734375zm5.71875 -0.8125q0.015625 -1.015625 -0.515625 -1.65625q-0.515625 -0.65625 -1.421875 -0.65625q-0.515625 0 -0.90625 0.203125q-0.390625 0.203125 -0.671875 0.53125q-0.265625 0.3125 -0.421875 0.734375q-0.140625 0.40625 -0.1875 0.84375l4.125 0zm6.194031 5.109375q-1.375 -0.03125 -1.953125 -0.578125q-0.578125 -0.5625 -0.578125 -1.75l0 -9.984375l1.484375 -0.265625l0 10.0q0 0.375 0.0625 0.625q0.0625 0.234375 0.203125 0.375q0.15625 0.140625 0.390625 0.21875q0.234375 0.0625 0.59375 0.109375l-0.203125 1.25zm4.367981 0q-1.375 -0.03125 -1.953125 -0.578125q-0.578125 -0.5625 -0.578125 -1.75l0 -9.984375l1.484375 -0.265625l0 10.0q0 0.375 0.0625 0.625q0.0625 0.234375 0.203125 0.375q0.15625 0.140625 0.390625 0.21875q0.234375 0.0625 0.59375 0.109375l-0.203125 1.25zm3.633667 -1.015625q0 0.421875 -0.296875 0.75q-0.28125 0.3125 -0.78125 0.3125q-0.5 0 -0.796875 -0.3125q-0.28125 -0.328125 -0.28125 -0.75q0 -0.4375 0.28125 -0.75q0.296875 -0.328125 0.796875 -0.328125q0.5 0 0.78125 0.328125q0.296875 0.3125 0.296875 0.75zm0 -6.0q0 0.421875 -0.296875 0.75q-0.28125 0.3125 -0.78125 0.3125q-0.5 0 -0.796875 -0.3125q-0.28125 -0.328125 -0.28125 -0.75q0 -0.4375 0.28125 -0.75q0.296875 -0.328125 0.796875 -0.328125q0.5 0 0.78125 0.328125q0.296875 0.3125 0.296875 0.75zm7.350769 -1.09375q0.28125 -0.171875 0.828125 -0.359375q0.546875 -0.203125 1.265625 -0.203125q0.90625 0 1.59375 0.328125q0.703125 0.3125 1.171875 0.890625q0.484375 0.578125 0.734375 1.375q0.25 0.796875 0.25 1.765625q0 1.0 -0.296875 1.8125q-0.296875 0.8125 -0.84375 1.375q-0.546875 0.546875 -1.3125 0.859375q-0.765625 0.296875 -1.71875 0.296875q-1.046875 0 -1.84375 -0.140625q-0.796875 -0.140625 -1.3125 -0.28125l0 -11.921875l1.484375 -0.265625l0 4.46875zm0 6.65625q0.21875 0.0625 0.625 0.125q0.421875 0.046875 1.03125 0.046875q1.1875 0 1.90625 -0.78125q0.734375 -0.796875 0.734375 -2.25q0 -0.640625 -0.140625 -1.203125q-0.125 -0.5625 -0.421875 -0.96875q-0.28125 -0.40625 -0.734375 -0.640625q-0.453125 -0.234375 -1.09375 -0.234375q-0.609375 0 -1.125 0.21875q-0.5 0.203125 -0.78125 0.421875l0 5.265625zm10.752136 0.21875q0.53125 0 0.9375 -0.015625q0.40625 -0.03125 0.6875 -0.09375l0 -2.46875q-0.171875 -0.09375 -0.53125 -0.140625q-0.359375 -0.0625 -0.875 -0.0625q-0.328125 0 -0.703125 0.046875q-0.375 0.046875 -0.6875 0.203125q-0.3125 0.15625 -0.53125 0.421875q-0.203125 0.265625 -0.203125 0.6875q0 0.796875 0.515625 1.109375q0.515625 0.3125 1.390625 0.3125zm-0.125 -7.453125q0.890625 0 1.5 0.234375q0.625 0.234375 1.0 0.65625q0.375 0.421875 0.53125 1.015625q0.171875 0.578125 0.171875 1.28125l0 5.203125q-0.203125 0.03125 -0.546875 0.09375q-0.34375 0.046875 -0.78125 0.09375q-0.421875 0.046875 -0.921875 0.078125q-0.5 0.046875 -1.0 0.046875q-0.703125 0 -1.296875 -0.140625q-0.59375 -0.140625 -1.03125 -0.453125q-0.421875 -0.3125 -0.671875 -0.828125q-0.234375 -0.515625 -0.234375 -1.234375q0 -0.6875 0.28125 -1.171875q0.28125 -0.5 0.75 -0.796875q0.484375 -0.3125 1.125 -0.453125q0.640625 -0.15625 1.34375 -0.15625q0.234375 0 0.46875 0.03125q0.234375 0.015625 0.453125 0.0625q0.21875 0.046875 0.375 0.078125q0.15625 0.03125 0.234375 0.046875l0 -0.421875q0 -0.359375 -0.09375 -0.71875q-0.078125 -0.375 -0.28125 -0.640625q-0.203125 -0.28125 -0.5625 -0.453125q-0.359375 -0.171875 -0.9375 -0.171875q-0.734375 0 -1.296875 0.109375q-0.546875 0.09375 -0.8125 0.21875l-0.1875 -1.234375q0.296875 -0.125 0.96875 -0.25q0.671875 -0.125 1.453125 -0.125zm7.6020203 7.453125q0.90625 0 1.34375 -0.234375q0.453125 -0.234375 0.453125 -0.765625q0 -0.546875 -0.4375 -0.859375q-0.4375 -0.328125 -1.421875 -0.71875q-0.484375 -0.203125 -0.921875 -0.390625q-0.4375 -0.203125 -0.765625 -0.46875q-0.3125 -0.28125 -0.515625 -0.65625q-0.1875 -0.390625 -0.1875 -0.953125q0 -1.109375 0.8125 -1.75q0.828125 -0.65625 2.234375 -0.65625q0.34375 0 0.6875 0.046875q0.359375 0.03125 0.65625 0.09375q0.3125 0.046875 0.546875 0.125q0.234375 0.0625 0.359375 0.109375l-0.265625 1.28125q-0.25 -0.140625 -0.765625 -0.265625q-0.5 -0.140625 -1.21875 -0.140625q-0.625 0 -1.09375 0.25q-0.46875 0.25 -0.46875 0.78125q0 0.265625 0.109375 0.484375q0.109375 0.203125 0.3125 0.375q0.21875 0.15625 0.53125 0.3125q0.328125 0.140625 0.78125 0.296875q0.59375 0.21875 1.046875 0.4375q0.46875 0.21875 0.796875 0.515625q0.328125 0.28125 0.5 0.6875q0.1875 0.40625 0.1875 1.0q0 1.15625 -0.859375 1.75q-0.859375 0.578125 -2.4375 0.578125q-1.109375 0 -1.734375 -0.1875q-0.625 -0.171875 -0.84375 -0.265625l0.265625 -1.28125q0.265625 0.09375 0.8125 0.28125q0.5625 0.1875 1.5 0.1875zm5.198517 1.078125l0 -12.15625l1.4843445 -0.265625l0 4.265625q0.421875 -0.15625 0.890625 -0.25q0.46875 -0.09375 0.9375 -0.09375q0.984375 0 1.640625 0.28125q0.65625 0.28125 1.046875 0.796875q0.40625 0.5 0.5625 1.203125q0.15625 0.703125 0.15625 1.546875l0 4.671875l-1.484375 0l0 -4.359375q0 -0.765625 -0.109375 -1.296875q-0.109375 -0.546875 -0.34375 -0.875q-0.234375 -0.34375 -0.640625 -0.5q-0.390625 -0.15625 -0.984375 -0.15625q-0.25 0 -0.5 0.03125q-0.25 0.03125 -0.484375 0.078125q-0.234375 0.03125 -0.421875 0.09375q-0.1875 0.046875 -0.265625 0.078125l0 6.90625l-1.4843445 0z" fill-rule="nonzero"></path><path fill="#ffffff" d="m383.70013 345.66718q0 1.4375 -0.453125 2.5q-0.453125 1.0625 -1.265625 1.765625q-0.8125 0.6875 -1.953125 1.03125q-1.125 0.34375 -2.5 0.34375q-0.671875 0 -1.484375 -0.0625q-0.796875 -0.046875 -1.453125 -0.203125l0 -10.75q0.65625 -0.171875 1.453125 -0.21875q0.8125 -0.0625 1.484375 -0.0625q1.375 0 2.5 0.34375q1.140625 0.34375 1.953125 1.046875q0.8125 0.6875 1.265625 1.765625q0.453125 1.0625 0.453125 2.5zm-6.03125 4.28125q2.203125 0 3.28125 -1.125q1.09375 -1.125 1.09375 -3.15625q0 -2.03125 -1.09375 -3.15625q-1.078125 -1.140625 -3.28125 -1.140625q-0.65625 0 -1.015625 0.015625q-0.359375 0.015625 -0.515625 0.03125l0 8.484375q0.15625 0.015625 0.515625 0.03125q0.359375 0.015625 1.015625 0.015625zm7.767395 -2.875q0 -1.109375 0.3125 -1.921875q0.328125 -0.828125 0.859375 -1.375q0.53125 -0.546875 1.21875 -0.8125q0.6875 -0.28125 1.40625 -0.28125q1.671875 0 2.5625 1.046875q0.90625 1.046875 0.90625 3.203125q0 0.09375 0 0.25q0 0.140625 -0.015625 0.265625l-5.6875 0q0.09375 1.296875 0.75 1.96875q0.65625 0.671875 2.046875 0.671875q0.78125 0 1.3125 -0.125q0.546875 -0.140625 0.8125 -0.265625l0.203125 1.25q-0.265625 0.140625 -0.953125 0.296875q-0.671875 0.15625 -1.53125 0.15625q-1.09375 0 -1.890625 -0.328125q-0.78125 -0.328125 -1.296875 -0.890625q-0.515625 -0.578125 -0.765625 -1.375q-0.25 -0.796875 -0.25 -1.734375zm5.71875 -0.8125q0.015625 -1.015625 -0.515625 -1.65625q-0.515625 -0.65625 -1.421875 -0.65625q-0.515625 0 -0.90625 0.203125q-0.390625 0.203125 -0.671875 0.53125q-0.265625 0.3125 -0.421875 0.734375q-0.140625 0.40625 -0.1875 0.84375l4.125 0zm5.1783752 -3.0q0.28125 -0.171875 0.828125 -0.359375q0.546875 -0.203125 1.265625 -0.203125q0.90625 0 1.59375 0.328125q0.703125 0.3125 1.171875 0.890625q0.484375 0.578125 0.734375 1.375q0.25 0.796875 0.25 1.765625q0 1.0 -0.296875 1.8125q-0.296875 0.8125 -0.84375 1.375q-0.546875 0.546875 -1.3125 0.859375q-0.765625 0.296875 -1.71875 0.296875q-1.046875 0 -1.84375 -0.140625q-0.796875 -0.140625 -1.3125 -0.28125l0 -11.921875l1.484375 -0.265625l0 4.46875zm0 6.65625q0.21875 0.0625 0.625 0.125q0.421875 0.046875 1.03125 0.046875q1.1875 0 1.90625 -0.78125q0.734375 -0.796875 0.734375 -2.25q0 -0.640625 -0.140625 -1.203125q-0.125 -0.5625 -0.421875 -0.96875q-0.28125 -0.40625 -0.734375 -0.640625q-0.453125 -0.234375 -1.09375 -0.234375q-0.609375 0 -1.125 0.21875q-0.5 0.203125 -0.78125 0.421875l0 5.265625zm14.564667 1.0625q-0.515625 0.125 -1.359375 0.265625q-0.828125 0.140625 -1.9375 0.140625q-0.96875 0 -1.625 -0.28125q-0.640625 -0.28125 -1.046875 -0.78125q-0.40625 -0.515625 -0.578125 -1.203125q-0.171875 -0.703125 -0.171875 -1.546875l0 -4.671875l1.484375 0l0 4.34375q0 1.515625 0.46875 2.171875q0.484375 0.65625 1.625 0.65625q0.25 0 0.5 -0.015625q0.25 -0.015625 0.46875 -0.03125q0.234375 -0.03125 0.421875 -0.046875q0.1875 -0.03125 0.265625 -0.0625l0 -7.015625l1.484375 0l0 8.078125zm7.777771 -0.59375q-0.203125 0.125 -0.75 0.328125q-0.546875 0.203125 -1.28125 0.203125q-0.75 0 -1.421875 -0.234375q-0.65625 -0.25 -1.15625 -0.75q-0.5 -0.515625 -0.796875 -1.265625q-0.28125 -0.75 -0.28125 -1.796875q0 -0.90625 0.265625 -1.65625q0.28125 -0.765625 0.796875 -1.3125q0.53125 -0.5625 1.28125 -0.875q0.75 -0.3125 1.6875 -0.3125q1.046875 0 1.8125 0.15625q0.78125 0.15625 1.3125 0.28125l0 7.421875q0 1.921875 -1.0 2.78125q-0.984375 0.875 -3.0 0.875q-0.78125 0 -1.484375 -0.140625q-0.6875 -0.125 -1.203125 -0.296875l0.265625 -1.296875q0.453125 0.171875 1.09375 0.3125q0.65625 0.140625 1.359375 0.140625q1.328125 0 1.90625 -0.53125q0.59375 -0.53125 0.59375 -1.6875l0 -0.34375zm-0.015625 -6.1875q-0.234375 -0.0625 -0.609375 -0.109375q-0.375 -0.0625 -1.015625 -0.0625q-1.203125 0 -1.84375 0.796875q-0.640625 0.78125 -0.640625 2.078125q0 0.71875 0.171875 1.234375q0.1875 0.5 0.5 0.84375q0.3125 0.328125 0.71875 0.5q0.40625 0.15625 0.84375 0.15625q0.59375 0 1.078125 -0.171875q0.5 -0.171875 0.796875 -0.390625l0 -4.875zm9.131531 -1.296875l3.15625 0l0 1.234375l-3.15625 0l0 3.84375q0 0.625 0.09375 1.03125q0.09375 0.40625 0.28125 0.640625q0.203125 0.234375 0.484375 0.328125q0.296875 0.09375 0.671875 0.09375q0.671875 0 1.078125 -0.140625q0.421875 -0.15625 0.578125 -0.21875l0.28125 1.234375q-0.21875 0.109375 -0.78125 0.265625q-0.5625 0.171875 -1.28125 0.171875q-0.84375 0 -1.40625 -0.203125q-0.546875 -0.21875 -0.890625 -0.65625q-0.328125 -0.4375 -0.46875 -1.0625q-0.125 -0.640625 -0.125 -1.46875l0 -7.421875l1.484375 -0.25l0 2.578125zm12.385132 4.15625q0 0.984375 -0.296875 1.796875q-0.28125 0.796875 -0.796875 1.375q-0.515625 0.5625 -1.25 0.875q-0.71875 0.3125 -1.5625 0.3125q-0.84375 0 -1.5625 -0.3125q-0.71875 -0.3125 -1.25 -0.875q-0.515625 -0.578125 -0.8125 -1.375q-0.28125 -0.8125 -0.28125 -1.796875q0 -0.984375 0.28125 -1.78125q0.296875 -0.8125 0.8125 -1.390625q0.53125 -0.578125 1.25 -0.890625q0.71875 -0.3125 1.5625 -0.3125q0.84375 0 1.5625 0.3125q0.734375 0.3125 1.25 0.890625q0.515625 0.578125 0.796875 1.390625q0.296875 0.796875 0.296875 1.78125zm-1.546875 0q0 -1.40625 -0.640625 -2.234375q-0.625 -0.828125 -1.71875 -0.828125q-1.09375 0 -1.71875 0.828125q-0.625 0.828125 -0.625 2.234375q0 1.40625 0.625 2.234375q0.625 0.8125 1.71875 0.8125q1.09375 0 1.71875 -0.8125q0.640625 -0.828125 0.640625 -2.234375zm10.986908 0q0 0.984375 -0.296875 1.796875q-0.28125 0.796875 -0.796875 1.375q-0.515625 0.5625 -1.25 0.875q-0.71875 0.3125 -1.5625 0.3125q-0.84375 0 -1.5625 -0.3125q-0.71875 -0.3125 -1.25 -0.875q-0.515625 -0.578125 -0.8125305 -1.375q-0.28125 -0.8125 -0.28125 -1.796875q0 -0.984375 0.28125 -1.78125q0.29690552 -0.8125 0.8125305 -1.390625q0.53125 -0.578125 1.25 -0.890625q0.71875 -0.3125 1.5625 -0.3125q0.84375 0 1.5625 0.3125q0.734375 0.3125 1.25 0.890625q0.515625 0.578125 0.796875 1.390625q0.296875 0.796875 0.296875 1.78125zm-1.546875 0q0 -1.40625 -0.640625 -2.234375q-0.625 -0.828125 -1.71875 -0.828125q-1.09375 0 -1.71875 0.828125q-0.625 0.828125 -0.625 2.234375q0 1.40625 0.625 2.234375q0.625 0.8125 1.71875 0.8125q1.09375 0 1.71875 -0.8125q0.640625 -0.828125 0.640625 -2.234375zm6.1431274 4.3125q-1.375 -0.03125 -1.953125 -0.578125q-0.578125 -0.5625 -0.578125 -1.75l0 -9.984375l1.484375 -0.265625l0 10.0q0 0.375 0.0625 0.625q0.0625 0.234375 0.203125 0.375q0.15625 0.140625 0.390625 0.21875q0.234375 0.0625 0.59375 0.109375l-0.203125 1.25zm3.8055115 -1.234375q0.90625 0 1.34375 -0.234375q0.453125 -0.234375 0.453125 -0.765625q0 -0.546875 -0.4375 -0.859375q-0.4375 -0.328125 -1.421875 -0.71875q-0.484375 -0.203125 -0.921875 -0.390625q-0.4375 -0.203125 -0.765625 -0.46875q-0.3125 -0.28125 -0.515625 -0.65625q-0.1875 -0.390625 -0.1875 -0.953125q0 -1.109375 0.8125 -1.75q0.828125 -0.65625 2.234375 -0.65625q0.34375 0 0.6875 0.046875q0.359375 0.03125 0.65625 0.09375q0.3125 0.046875 0.546875 0.125q0.234375 0.0625 0.359375 0.109375l-0.265625 1.28125q-0.25 -0.140625 -0.765625 -0.265625q-0.5 -0.140625 -1.21875 -0.140625q-0.625 0 -1.09375 0.25q-0.46875 0.25 -0.46875 0.78125q0 0.265625 0.109375 0.484375q0.109375 0.203125 0.3125 0.375q0.21875 0.15625 0.53125 0.3125q0.328125 0.140625 0.78125 0.296875q0.59375 0.21875 1.046875 0.4375q0.46875 0.21875 0.796875 0.515625q0.328125 0.28125 0.5 0.6875q0.1875 0.40625 0.1875 1.0q0 1.15625 -0.859375 1.75q-0.859375 0.578125 -2.4375 0.578125q-1.109375 0 -1.734375 -0.1875q-0.625 -0.171875 -0.84375 -0.265625l0.265625 -1.28125q0.265625 0.09375 0.8125 0.28125q0.5625 0.1875 1.5 0.1875zm6.964142 0.21875q0 0.421875 -0.296875 0.75q-0.28125 0.3125 -0.78125 0.3125q-0.5 0 -0.796875 -0.3125q-0.28125 -0.328125 -0.28125 -0.75q0 -0.4375 0.28125 -0.75q0.296875 -0.328125 0.796875 -0.328125q0.5 0 0.78125 0.328125q0.296875 0.3125 0.296875 0.75zm0 -6.0q0 0.421875 -0.296875 0.75q-0.28125 0.3125 -0.78125 0.3125q-0.5 0 -0.796875 -0.3125q-0.28125 -0.328125 -0.28125 -0.75q0 -0.4375 0.28125 -0.75q0.296875 -0.328125 0.796875 -0.328125q0.5 0 0.78125 0.328125q0.296875 0.3125 0.296875 0.75zm7.257019 -1.453125l3.15625 0l0 1.234375l-3.15625 0l0 3.84375q0 0.625 0.09375 1.03125q0.09375 0.40625 0.28125 0.640625q0.203125 0.234375 0.484375 0.328125q0.296875 0.09375 0.671875 0.09375q0.671875 0 1.078125 -0.140625q0.421875 -0.15625 0.578125 -0.21875l0.28125 1.234375q-0.21875 0.109375 -0.78125 0.265625q-0.5625 0.171875 -1.28125 0.171875q-0.84375 0 -1.40625 -0.203125q-0.546875 -0.21875 -0.890625 -0.65625q-0.328125 -0.4375 -0.46875 -1.0625q-0.125 -0.640625 -0.125 -1.46875l0 -7.421875l1.484375 -0.25l0 2.578125zm8.650757 8.5q-1.0 0 -1.765625 -0.3125q-0.75 -0.328125 -1.28125 -0.890625q-0.515625 -0.578125 -0.78125 -1.375q-0.25 -0.796875 -0.25 -1.75q0 -0.96875 0.28125 -1.765625q0.28125 -0.796875 0.796875 -1.375q0.515625 -0.59375 1.25 -0.921875q0.75 -0.328125 1.65625 -0.328125q0.5625 0 1.125 0.09375q0.5625 0.09375 1.0625 0.3125l-0.328125 1.265625q-0.34375 -0.171875 -0.78125 -0.265625q-0.4375 -0.09375 -0.9375 -0.09375q-1.234375 0 -1.90625 0.796875q-0.65625 0.78125 -0.65625 2.28125q0 0.671875 0.140625 1.234375q0.15625 0.546875 0.484375 0.953125q0.328125 0.40625 0.84375 0.625q0.515625 0.203125 1.25 0.203125q0.59375 0 1.0625 -0.109375q0.484375 -0.109375 0.75 -0.234375l0.21875 1.25q-0.140625 0.078125 -0.375 0.15625q-0.234375 0.0625 -0.546875 0.109375q-0.296875 0.0625 -0.640625 0.09375q-0.34375 0.046875 -0.671875 0.046875zm9.611877 -4.328125q0 -1.453125 -0.734375 -2.234375q-0.71875 -0.796875 -1.90625 -0.796875q-0.671875 0 -1.0625 0.046875q-0.375 0.046875 -0.59375 0.109375l0 5.25q0.28125 0.234375 0.78125 0.4375q0.515625 0.203125 1.125 0.203125q0.640625 0 1.09375 -0.21875q0.453125 -0.234375 0.734375 -0.640625q0.296875 -0.421875 0.421875 -0.96875q0.140625 -0.546875 0.140625 -1.1875zm1.546875 0q0 0.9375 -0.25 1.75q-0.25 0.796875 -0.734375 1.375q-0.46875 0.5625 -1.171875 0.890625q-0.6875 0.3125 -1.59375 0.3125q-0.71875 0 -1.265625 -0.1875q-0.546875 -0.1875 -0.828125 -0.375l0 3.328125l-1.484375 0l0 -11.015625q0.53125 -0.125 1.3125 -0.28125q0.796875 -0.15625 1.84375 -0.15625q0.953125 0 1.71875 0.3125q0.765625 0.296875 1.3125 0.859375q0.546875 0.5625 0.84375 1.375q0.296875 0.796875 0.296875 1.8125zm7.4709167 -2.421875q-0.265625 -0.21875 -0.78125 -0.421875q-0.515625 -0.21875 -1.125 -0.21875q-0.640625 0 -1.09375 0.234375q-0.453125 0.234375 -0.75 0.640625q-0.28125 0.40625 -0.40625 0.96875q-0.125 0.5625 -0.125 1.203125q0 1.453125 0.71875 2.25q0.71875 0.78125 1.921875 0.78125q0.59375 0 1.0 -0.046875q0.421875 -0.0625 0.640625 -0.125l0 -5.265625zm0 -5.59375l1.484375 -0.265625l0 12.1875q-0.515625 0.140625 -1.3125 0.28125q-0.796875 0.140625 -1.84375 0.140625q-0.953125 0 -1.71875 -0.296875q-0.765625 -0.3125 -1.3125 -0.859375q-0.546875 -0.5625 -0.84375 -1.375q-0.296875 -0.8125 -0.296875 -1.8125q0 -0.96875 0.25 -1.765625q0.25 -0.796875 0.71875 -1.375q0.484375 -0.578125 1.171875 -0.890625q0.703125 -0.328125 1.609375 -0.328125q0.71875 0 1.265625 0.203125q0.5625 0.1875 0.828125 0.359375l0 -4.203125zm10.674042 11.921875q-0.515625 0.125 -1.359375 0.265625q-0.828125 0.140625 -1.9375 0.140625q-0.96875 0 -1.625 -0.28125q-0.640625 -0.28125 -1.046875 -0.78125q-0.40625 -0.515625 -0.578125 -1.203125q-0.171875 -0.703125 -0.171875 -1.546875l0 -4.671875l1.484375 0l0 4.34375q0 1.515625 0.46875 2.171875q0.484375 0.65625 1.625 0.65625q0.25 0 0.5 -0.015625q0.25 -0.015625 0.46875 -0.03125q0.234375 -0.03125 0.421875 -0.046875q0.1875 -0.03125 0.265625 -0.0625l0 -7.015625l1.484375 0l0 8.078125zm2.5589905 -7.84375q0.515625 -0.125 1.34375 -0.265625q0.84375 -0.15625 1.953125 -0.15625q0.796875 0 1.34375 0.21875q0.546875 0.21875 0.90625 0.640625q0.109375 -0.09375 0.34375 -0.234375q0.25 -0.140625 0.59375 -0.265625q0.359375 -0.140625 0.78125 -0.25q0.4375 -0.109375 0.9375 -0.109375q0.96875 0 1.5625 0.28125q0.609375 0.28125 0.953125 0.796875q0.359375 0.515625 0.46875 1.21875q0.125 0.703125 0.125 1.53125l0 4.671875l-1.484375 0l0 -4.359375q0 -0.734375 -0.078125 -1.25q-0.078125 -0.53125 -0.28125 -0.875q-0.1875 -0.359375 -0.53125 -0.53125q-0.34375 -0.171875 -0.890625 -0.171875q-0.75 0 -1.25 0.203125q-0.484375 0.203125 -0.65625 0.359375q0.125 0.421875 0.1875 0.921875q0.078125 0.484375 0.078125 1.03125l0 4.671875l-1.5 0l0 -4.359375q0 -0.734375 -0.078125 -1.25q-0.078125 -0.53125 -0.28125 -0.875q-0.203125 -0.359375 -0.546875 -0.53125q-0.34375 -0.171875 -0.859375 -0.171875q-0.234375 0 -0.484375 0.015625q-0.25 0.015625 -0.484375 0.046875q-0.234375 0.015625 -0.4375 0.046875q-0.1875 0.03125 -0.25 0.046875l0 7.03125l-1.484375 0l0 -8.078125zm19.557251 3.9375q0 -1.453125 -0.734375 -2.234375q-0.71875 -0.796875 -1.90625 -0.796875q-0.671875 0 -1.0625 0.046875q-0.375 0.046875 -0.59375 0.109375l0 5.25q0.28125 0.234375 0.78125 0.4375q0.515625 0.203125 1.125 0.203125q0.640625 0 1.09375 -0.21875q0.453125 -0.234375 0.734375 -0.640625q0.296875 -0.421875 0.421875 -0.96875q0.140625 -0.546875 0.140625 -1.1875zm1.546875 0q0 0.9375 -0.25 1.75q-0.25 0.796875 -0.734375 1.375q-0.46875 0.5625 -1.171875 0.890625q-0.6875 0.3125 -1.59375 0.3125q-0.71875 0 -1.265625 -0.1875q-0.546875 -0.1875 -0.828125 -0.375l0 3.328125l-1.484375 0l0 -11.015625q0.53125 -0.125 1.3125 -0.28125q0.796875 -0.15625 1.84375 -0.15625q0.953125 0 1.71875 0.3125q0.765625 0.296875 1.3125 0.859375q0.546875 0.5625 0.84375 1.375q0.296875 0.796875 0.296875 1.8125zm3.6584473 2.3125q0.015625 0.125 0.015625 0.25q0 0.125 0 0.25q0 1.015625 -0.296875 1.984375q-0.296875 0.984375 -0.796875 1.890625l-1.15625 -0.375q0.40625 -0.8125 0.53125 -1.65625q0.125 -0.828125 0.125 -1.578125q0 -0.203125 -0.015625 -0.390625q0 -0.1875 -0.015625 -0.375l1.609375 0zm8.007019 0.75q0.90625 0 1.34375 -0.234375q0.453125 -0.234375 0.453125 -0.765625q0 -0.546875 -0.4375 -0.859375q-0.4375 -0.328125 -1.421875 -0.71875q-0.484375 -0.203125 -0.921875 -0.390625q-0.4375 -0.203125 -0.765625 -0.46875q-0.3125 -0.28125 -0.515625 -0.65625q-0.1875 -0.390625 -0.1875 -0.953125q0 -1.109375 0.8125 -1.75q0.828125 -0.65625 2.234375 -0.65625q0.34375 0 0.6875 0.046875q0.359375 0.03125 0.65625 0.09375q0.3125 0.046875 0.546875 0.125q0.234375 0.0625 0.359375 0.109375l-0.265625 1.28125q-0.25 -0.140625 -0.765625 -0.265625q-0.5 -0.140625 -1.21875 -0.140625q-0.625 0 -1.09375 0.25q-0.46875 0.25 -0.46875 0.78125q0 0.265625 0.109375 0.484375q0.109375 0.203125 0.3125 0.375q0.21875 0.15625 0.53125 0.3125q0.328125 0.140625 0.78125 0.296875q0.59375 0.21875 1.046875 0.4375q0.46875 0.21875 0.796875 0.515625q0.328125 0.28125 0.5 0.6875q0.1875 0.40625 0.1875 1.0q0 1.15625 -0.859375 1.75q-0.859375 0.578125 -2.4375 0.578125q-1.109375 0 -1.734375 -0.1875q-0.625 -0.171875 -0.84375 -0.265625l0.265625 -1.28125q0.265625 0.09375 0.8125 0.28125q0.5625 0.1875 1.5 0.1875zm6.5891113 -7.234375l3.15625 0l0 1.234375l-3.15625 0l0 3.84375q0 0.625 0.09375 1.03125q0.09375 0.40625 0.28125 0.640625q0.203125 0.234375 0.484375 0.328125q0.296875 0.09375 0.671875 0.09375q0.671875 0 1.078125 -0.140625q0.421875 -0.15625 0.578125 -0.21875l0.28125 1.234375q-0.21875 0.109375 -0.78125 0.265625q-0.5625 0.171875 -1.28125 0.171875q-0.84375 0 -1.40625 -0.203125q-0.546875 -0.21875 -0.890625 -0.65625q-0.328125 -0.4375 -0.46875 -1.0625q-0.125 -0.640625 -0.125 -1.46875l0 -7.421875l1.484375 -0.25l0 2.578125zm8.119507 -0.1875q0.1875 0 0.4375 0.03125q0.25 0.015625 0.484375 0.0625q0.234375 0.03125 0.4375 0.078125q0.203125 0.046875 0.296875 0.078125l-0.25 1.296875q-0.1875 -0.078125 -0.59375 -0.15625q-0.40625 -0.09375 -1.046875 -0.09375q-0.40625 0 -0.828125 0.09375q-0.40625 0.078125 -0.53125 0.125l0 6.984375l-1.484375 0l0 -7.96875q0.53125 -0.1875 1.3125 -0.359375q0.78125 -0.171875 1.765625 -0.171875zm5.9104004 7.421875q0.53125 0 0.9375 -0.015625q0.40625 -0.03125 0.6875 -0.09375l0 -2.46875q-0.171875 -0.09375 -0.53125 -0.140625q-0.359375 -0.0625 -0.875 -0.0625q-0.328125 0 -0.703125 0.046875q-0.375 0.046875 -0.6875 0.203125q-0.3125 0.15625 -0.53125 0.421875q-0.203125 0.265625 -0.203125 0.6875q0 0.796875 0.515625 1.109375q0.515625 0.3125 1.390625 0.3125zm-0.125 -7.453125q0.890625 0 1.5 0.234375q0.625 0.234375 1.0 0.65625q0.375 0.421875 0.53125 1.015625q0.171875 0.578125 0.171875 1.28125l0 5.203125q-0.203125 0.03125 -0.546875 0.09375q-0.34375 0.046875 -0.78125 0.09375q-0.421875 0.046875 -0.921875 0.078125q-0.5 0.046875 -1.0 0.046875q-0.703125 0 -1.296875 -0.140625q-0.59375 -0.140625 -1.03125 -0.453125q-0.421875 -0.3125 -0.671875 -0.828125q-0.234375 -0.515625 -0.234375 -1.234375q0 -0.6875 0.28125 -1.171875q0.28125 -0.5 0.75 -0.796875q0.484375 -0.3125 1.125 -0.453125q0.640625 -0.15625 1.34375 -0.15625q0.234375 0 0.46875 0.03125q0.234375 0.015625 0.453125 0.0625q0.21875 0.046875 0.375 0.078125q0.15625 0.03125 0.234375 0.046875l0 -0.421875q0 -0.359375 -0.09375 -0.71875q-0.078125 -0.375 -0.28125 -0.640625q-0.203125 -0.28125 -0.5625 -0.453125q-0.359375 -0.171875 -0.9375 -0.171875q-0.734375 0 -1.296875 0.109375q-0.546875 0.09375 -0.8125 0.21875l-0.1875 -1.234375q0.296875 -0.125 0.96875 -0.25q0.671875 -0.125 1.453125 -0.125zm9.273865 8.71875q-1.0 0 -1.765625 -0.3125q-0.75 -0.328125 -1.28125 -0.890625q-0.515625 -0.578125 -0.78125 -1.375q-0.25 -0.796875 -0.25 -1.75q0 -0.96875 0.28125 -1.765625q0.28125 -0.796875 0.796875 -1.375q0.515625 -0.59375 1.25 -0.921875q0.75 -0.328125 1.65625 -0.328125q0.5625 0 1.125 0.09375q0.5625 0.09375 1.0625 0.3125l-0.328125 1.265625q-0.34375 -0.171875 -0.78125 -0.265625q-0.4375 -0.09375 -0.9375 -0.09375q-1.234375 0 -1.90625 0.796875q-0.65625 0.78125 -0.65625 2.28125q0 0.671875 0.140625 1.234375q0.15625 0.546875 0.484375 0.953125q0.328125 0.40625 0.84375 0.625q0.515625 0.203125 1.25 0.203125q0.59375 0 1.0625 -0.109375q0.484375 -0.109375 0.75 -0.234375l0.21875 1.25q-0.140625 0.078125 -0.375 0.15625q-0.234375 0.0625 -0.546875 0.109375q-0.296875 0.0625 -0.640625 0.09375q-0.34375 0.046875 -0.671875 0.046875zm3.3619385 -4.328125q0 -1.109375 0.3125 -1.921875q0.328125 -0.828125 0.859375 -1.375q0.53125 -0.546875 1.21875 -0.8125q0.6875 -0.28125 1.40625 -0.28125q1.671875 0 2.5625 1.046875q0.90625 1.046875 0.90625 3.203125q0 0.09375 0 0.25q0 0.140625 -0.015625 0.265625l-5.6875 0q0.09375 1.296875 0.75 1.96875q0.65625 0.671875 2.046875 0.671875q0.78125 0 1.3125 -0.125q0.546875 -0.140625 0.8125 -0.265625l0.203125 1.25q-0.265625 0.140625 -0.953125 0.296875q-0.671875 0.15625 -1.53125 0.15625q-1.09375 0 -1.890625 -0.328125q-0.78125 -0.328125 -1.296875 -0.890625q-0.515625 -0.578125 -0.765625 -1.375q-0.25 -0.796875 -0.25 -1.734375zm5.71875 -0.8125q0.015625 -1.015625 -0.515625 -1.65625q-0.515625 -0.65625 -1.421875 -0.65625q-0.515625 0 -0.90625 0.203125q-0.390625 0.203125 -0.671875 0.53125q-0.265625 0.3125 -0.421875 0.734375q-0.140625 0.40625 -0.1875 0.84375l4.125 0z" fill-rule="nonzero"></path><path fill="#ffffff" d="m357.59637 370.44843q-1.171875 0 -2.125 -0.375q-0.953125 -0.390625 -1.640625 -1.125q-0.6875 -0.734375 -1.078125 -1.8125q-0.375 -1.078125 -0.375 -2.46875q0 -1.390625 0.421875 -2.46875q0.4375 -1.09375 1.15625 -1.828125q0.71875 -0.734375 1.671875 -1.109375q0.96875 -0.390625 2.046875 -0.390625q0.6875 0 1.234375 0.09375q0.5625 0.09375 0.96875 0.234375q0.40625 0.125 0.65625 0.25q0.265625 0.125 0.359375 0.1875l-0.453125 1.28125q-0.140625 -0.09375 -0.421875 -0.203125q-0.265625 -0.109375 -0.609375 -0.21875q-0.34375 -0.125 -0.75 -0.1875q-0.40625 -0.078125 -0.8125 -0.078125q-0.890625 0 -1.59375 0.3125q-0.703125 0.296875 -1.203125 0.875q-0.484375 0.578125 -0.75 1.40625q-0.265625 0.8125 -0.265625 1.84375q0 0.984375 0.234375 1.8125q0.234375 0.8125 0.6875 1.390625q0.46875 0.578125 1.15625 0.90625q0.703125 0.3125 1.625 0.3125q1.078125 0 1.78125 -0.21875q0.703125 -0.21875 1.0625 -0.40625l0.390625 1.28125q-0.109375 0.078125 -0.40625 0.203125q-0.28125 0.125 -0.71875 0.234375q-0.421875 0.109375 -1.0 0.1875q-0.578125 0.078125 -1.25 0.078125zm4.5918884 -4.375q0 -1.109375 0.3125 -1.921875q0.328125 -0.828125 0.859375 -1.375q0.53125 -0.546875 1.21875 -0.8125q0.6875 -0.28125 1.40625 -0.28125q1.671875 0 2.5625 1.046875q0.90625 1.046875 0.90625 3.203125q0 0.09375 0 0.25q0 0.140625 -0.015625 0.265625l-5.6875 0q0.09375 1.296875 0.75 1.96875q0.65625 0.671875 2.046875 0.671875q0.78125 0 1.3125 -0.125q0.546875 -0.140625 0.8125 -0.265625l0.203125 1.25q-0.265625 0.140625 -0.953125 0.296875q-0.671875 0.15625 -1.53125 0.15625q-1.09375 0 -1.890625 -0.328125q-0.78125 -0.328125 -1.296875 -0.890625q-0.515625 -0.578125 -0.765625 -1.375q-0.25 -0.796875 -0.25 -1.734375zm5.71875 -0.8125q0.015625 -1.015625 -0.515625 -1.65625q-0.515625 -0.65625 -1.421875 -0.65625q-0.515625 0 -0.90625 0.203125q-0.390625 0.203125 -0.671875 0.53125q-0.265625 0.3125 -0.421875 0.734375q-0.140625 0.40625 -0.1875 0.84375l4.125 0zm6.7721252 -3.546875q0.1875 0 0.4375 0.03125q0.25 0.015625 0.484375 0.0625q0.234375 0.03125 0.4375 0.078125q0.203125 0.046875 0.296875 0.078125l-0.25 1.296875q-0.1875 -0.078125 -0.59375 -0.15625q-0.40625 -0.09375 -1.046875 -0.09375q-0.40625 0 -0.828125 0.09375q-0.40625 0.078125 -0.53125 0.125l0 6.984375l-1.484375 0l0 -7.96875q0.53125 -0.1875 1.3125 -0.359375q0.78125 -0.171875 1.765625 -0.171875zm4.4885254 0.1875l3.15625 0l0 1.234375l-3.15625 0l0 3.84375q0 0.625 0.09375 1.03125q0.09375 0.40625 0.28125 0.640625q0.203125 0.234375 0.484375 0.328125q0.296875 0.09375 0.671875 0.09375q0.671875 0 1.078125 -0.140625q0.421875 -0.15625 0.578125 -0.21875l0.28125 1.234375q-0.21875 0.109375 -0.78125 0.265625q-0.5625 0.171875 -1.28125 0.171875q-0.84375 0 -1.40625 -0.203125q-0.546875 -0.21875 -0.890625 -0.65625q-0.328125 -0.4375 -0.46875 -1.0625q-0.125 -0.640625 -0.125 -1.46875l0 -7.421875l1.484375 -0.25l0 2.578125zm6.525757 8.3125l-1.484375 0l0 -8.3125l1.484375 0l0 8.3125zm-0.75 -9.828125q-0.40625 0 -0.6875 -0.265625q-0.265625 -0.265625 -0.265625 -0.703125q0 -0.453125 0.265625 -0.71875q0.28125 -0.265625 0.6875 -0.265625q0.40625 0 0.671875 0.265625q0.28125 0.265625 0.28125 0.71875q0 0.4375 -0.28125 0.703125q-0.265625 0.265625 -0.671875 0.265625zm6.563629 -2.59375q0.65625 0 1.125 0.109375q0.46875 0.09375 0.65625 0.171875l-0.265625 1.28125q-0.1875 -0.09375 -0.546875 -0.1875q-0.34375 -0.09375 -0.859375 -0.09375q-1.046875 0 -1.46875 0.578125q-0.40625 0.5625 -0.40625 1.515625l0 0.734375l3.203125 0l0 1.234375l-3.203125 0l0 7.078125l-1.484375 0l0 -9.078125q0 -1.59375 0.78125 -2.46875q0.78125 -0.875 2.46875 -0.875zm4.41037 12.421875l-1.484375 0l0 -8.3125l1.484375 0l0 8.3125zm-0.75 -9.828125q-0.40625 0 -0.6875 -0.265625q-0.265625 -0.265625 -0.265625 -0.703125q0 -0.453125 0.265625 -0.71875q0.28125 -0.265625 0.6875 -0.265625q0.40625 0 0.671875 0.265625q0.28125 0.265625 0.28125 0.71875q0 0.4375 -0.28125 0.703125q-0.265625 0.265625 -0.671875 0.265625zm6.923004 10.015625q-1.0 0 -1.765625 -0.3125q-0.75 -0.328125 -1.28125 -0.890625q-0.515625 -0.578125 -0.78125 -1.375q-0.25 -0.796875 -0.25 -1.75q0 -0.96875 0.28125 -1.765625q0.28125 -0.796875 0.796875 -1.375q0.515625 -0.59375 1.25 -0.921875q0.75 -0.328125 1.65625 -0.328125q0.5625 0 1.125 0.09375q0.5625 0.09375 1.0625 0.3125l-0.328125 1.265625q-0.34375 -0.171875 -0.78125 -0.265625q-0.4375 -0.09375 -0.9375 -0.09375q-1.234375 0 -1.90625 0.796875q-0.65625 0.78125 -0.65625 2.28125q0 0.671875 0.140625 1.234375q0.15625 0.546875 0.484375 0.953125q0.328125 0.40625 0.84375 0.625q0.515625 0.203125 1.25 0.203125q0.59375 0 1.0625 -0.109375q0.484375 -0.109375 0.75 -0.234375l0.21875 1.25q-0.140625 0.078125 -0.375 0.15625q-0.234375 0.0625 -0.546875 0.109375q-0.296875 0.0625 -0.640625 0.09375q-0.34375 0.046875 -0.671875 0.046875zm6.643158 -1.265625q0.53125 0 0.9375 -0.015625q0.40625 -0.03125 0.6875 -0.09375l0 -2.46875q-0.171875 -0.09375 -0.53125 -0.140625q-0.359375 -0.0625 -0.875 -0.0625q-0.328125 0 -0.703125 0.046875q-0.375 0.046875 -0.6875 0.203125q-0.3125 0.15625 -0.53125 0.421875q-0.203125 0.265625 -0.203125 0.6875q0 0.796875 0.515625 1.109375q0.515625 0.3125 1.390625 0.3125zm-0.125 -7.453125q0.890625 0 1.5 0.234375q0.625 0.234375 1.0 0.65625q0.375 0.421875 0.53125 1.015625q0.171875 0.578125 0.171875 1.28125l0 5.203125q-0.203125 0.03125 -0.546875 0.09375q-0.34375 0.046875 -0.78125 0.09375q-0.421875 0.046875 -0.921875 0.078125q-0.5 0.046875 -1.0 0.046875q-0.703125 0 -1.296875 -0.140625q-0.59375 -0.140625 -1.03125 -0.453125q-0.421875 -0.3125 -0.671875 -0.828125q-0.234375 -0.515625 -0.234375 -1.234375q0 -0.6875 0.28125 -1.171875q0.28125 -0.5 0.75 -0.796875q0.484375 -0.3125 1.125 -0.453125q0.640625 -0.15625 1.34375 -0.15625q0.234375 0 0.46875 0.03125q0.234375 0.015625 0.453125 0.0625q0.21875 0.046875 0.375 0.078125q0.15625 0.03125 0.234375 0.046875l0 -0.421875q0 -0.359375 -0.09375 -0.71875q-0.078125 -0.375 -0.28125 -0.640625q-0.203125 -0.28125 -0.5625 -0.453125q-0.359375 -0.171875 -0.9375 -0.171875q-0.734375 0 -1.296875 0.109375q-0.546875 0.09375 -0.8125 0.21875l-0.1875 -1.234375q0.296875 -0.125 0.96875 -0.25q0.671875 -0.125 1.453125 -0.125zm7.0551453 0.21875l3.15625 0l0 1.234375l-3.15625 0l0 3.84375q0 0.625 0.09375 1.03125q0.09375 0.40625 0.28125 0.640625q0.203125 0.234375 0.484375 0.328125q0.296875 0.09375 0.671875 0.09375q0.671875 0 1.078125 -0.140625q0.421875 -0.15625 0.578125 -0.21875l0.28125 1.234375q-0.21875 0.109375 -0.78125 0.265625q-0.5625 0.171875 -1.28125 0.171875q-0.84375 0 -1.40625 -0.203125q-0.546875 -0.21875 -0.890625 -0.65625q-0.328125 -0.4375 -0.46875 -1.0625q-0.125 -0.640625 -0.125 -1.46875l0 -7.421875l1.484375 -0.25l0 2.578125zm4.572632 4.171875q0 -1.109375 0.3125 -1.921875q0.328125 -0.828125 0.859375 -1.375q0.53125 -0.546875 1.21875 -0.8125q0.6875 -0.28125 1.40625 -0.28125q1.671875 0 2.5625 1.046875q0.90625 1.046875 0.90625 3.203125q0 0.09375 0 0.25q0 0.140625 -0.015625 0.265625l-5.6875 0q0.09375 1.296875 0.75 1.96875q0.65625 0.671875 2.046875 0.671875q0.78125 0 1.3125 -0.125q0.546875 -0.140625 0.8125 -0.265625l0.203125 1.25q-0.265625 0.140625 -0.953125 0.296875q-0.671875 0.15625 -1.53125 0.15625q-1.09375 0 -1.890625 -0.328125q-0.78125 -0.328125 -1.296875 -0.890625q-0.515625 -0.578125 -0.765625 -1.375q-0.25 -0.796875 -0.25 -1.734375zm5.71875 -0.8125q0.015625 -1.015625 -0.515625 -1.65625q-0.515625 -0.65625 -1.421875 -0.65625q-0.515625 0 -0.90625 0.203125q-0.390625 0.203125 -0.671875 0.53125q-0.265625 0.3125 -0.421875 0.734375q-0.140625 0.40625 -0.1875 0.84375l4.125 0zm5.6315002 3.875q0.90625 0 1.34375 -0.234375q0.453125 -0.234375 0.453125 -0.765625q0 -0.546875 -0.4375 -0.859375q-0.4375 -0.328125 -1.421875 -0.71875q-0.484375 -0.203125 -0.921875 -0.390625q-0.4375 -0.203125 -0.765625 -0.46875q-0.3125 -0.28125 -0.515625 -0.65625q-0.1875 -0.390625 -0.1875 -0.953125q0 -1.109375 0.8125 -1.75q0.828125 -0.65625 2.234375 -0.65625q0.34375 0 0.6875 0.046875q0.359375 0.03125 0.65625 0.09375q0.3125 0.046875 0.546875 0.125q0.234375 0.0625 0.359375 0.109375l-0.265625 1.28125q-0.25 -0.140625 -0.765625 -0.265625q-0.5 -0.140625 -1.21875 -0.140625q-0.625 0 -1.09375 0.25q-0.46875 0.25 -0.46875 0.78125q0 0.265625 0.109375 0.484375q0.109375 0.203125 0.3125 0.375q0.21875 0.15625 0.53125 0.3125q0.328125 0.140625 0.78125 0.296875q0.59375 0.21875 1.046875 0.4375q0.46875 0.21875 0.796875 0.515625q0.328125 0.28125 0.5 0.6875q0.1875 0.40625 0.1875 1.0q0 1.15625 -0.859375 1.75q-0.859375 0.578125 -2.4375 0.578125q-1.109375 0 -1.734375 -0.1875q-0.625 -0.171875 -0.84375 -0.265625l0.265625 -1.28125q0.265625 0.09375 0.8125 0.28125q0.5625 0.1875 1.5 0.1875zm6.964142 0.21875q0 0.421875 -0.296875 0.75q-0.28125 0.3125 -0.78125 0.3125q-0.5 0 -0.796875 -0.3125q-0.28125 -0.328125 -0.28125 -0.75q0 -0.4375 0.28125 -0.75q0.296875 -0.328125 0.796875 -0.328125q0.5 0 0.78125 0.328125q0.296875 0.3125 0.296875 0.75zm0 -6.0q0 0.421875 -0.296875 0.75q-0.28125 0.3125 -0.78125 0.3125q-0.5 0 -0.796875 -0.3125q-0.28125 -0.328125 -0.28125 -0.75q0 -0.4375 0.28125 -0.75q0.296875 -0.328125 0.796875 -0.328125q0.5 0 0.78125 0.328125q0.296875 0.3125 0.296875 0.75zm9.475769 7.046875q-1.0 0 -1.765625 -0.3125q-0.75 -0.328125 -1.28125 -0.890625q-0.515625 -0.578125 -0.78125 -1.375q-0.25 -0.796875 -0.25 -1.75q0 -0.96875 0.28125 -1.765625q0.28125 -0.796875 0.796875 -1.375q0.515625 -0.59375 1.25 -0.921875q0.75 -0.328125 1.65625 -0.328125q0.5625 0 1.125 0.09375q0.5625 0.09375 1.0625 0.3125l-0.328125 1.265625q-0.34375 -0.171875 -0.78125 -0.265625q-0.4375 -0.09375 -0.9375 -0.09375q-1.234375 0 -1.90625 0.796875q-0.65625 0.78125 -0.65625 2.28125q0 0.671875 0.140625 1.234375q0.15625 0.546875 0.484375 0.953125q0.328125 0.40625 0.84375 0.625q0.515625 0.203125 1.25 0.203125q0.59375 0 1.0625 -0.109375q0.484375 -0.109375 0.75 -0.234375l0.21875 1.25q-0.140625 0.078125 -0.375 0.15625q-0.234375 0.0625 -0.546875 0.109375q-0.296875 0.0625 -0.640625 0.09375q-0.34375 0.046875 -0.671875 0.046875zm6.643158 -1.265625q0.53125 0 0.9375 -0.015625q0.40625 -0.03125 0.6875 -0.09375l0 -2.46875q-0.171875 -0.09375 -0.53125 -0.140625q-0.359375 -0.0625 -0.875 -0.0625q-0.328125 0 -0.703125 0.046875q-0.375 0.046875 -0.6875 0.203125q-0.3125 0.15625 -0.53125 0.421875q-0.203125 0.265625 -0.203125 0.6875q0 0.796875 0.515625 1.109375q0.515625 0.3125 1.390625 0.3125zm-0.125 -7.453125q0.890625 0 1.5 0.234375q0.625 0.234375 1.0 0.65625q0.375 0.421875 0.53125 1.015625q0.171875 0.578125 0.171875 1.28125l0 5.203125q-0.203125 0.03125 -0.546875 0.09375q-0.34375 0.046875 -0.78125 0.09375q-0.421875 0.046875 -0.921875 0.078125q-0.5 0.046875 -1.0 0.046875q-0.703125 0 -1.296875 -0.140625q-0.59375 -0.140625 -1.03125 -0.453125q-0.421875 -0.3125 -0.671875 -0.828125q-0.234375 -0.515625 -0.234375 -1.234375q0 -0.6875 0.28125 -1.171875q0.28125 -0.5 0.75 -0.796875q0.484375 -0.3125 1.125 -0.453125q0.640625 -0.15625 1.34375 -0.15625q0.234375 0 0.46875 0.03125q0.234375 0.015625 0.453125 0.0625q0.21875 0.046875 0.375 0.078125q0.15625 0.03125 0.234375 0.046875l0 -0.421875q0 -0.359375 -0.09375 -0.71875q-0.078125 -0.375 -0.28125 -0.640625q-0.203125 -0.28125 -0.5625 -0.453125q-0.359375 -0.171875 -0.9375 -0.171875q-0.734375 0 -1.296875 0.109375q-0.546875 0.09375 -0.8125 0.21875l-0.1875 -1.234375q0.296875 -0.125 0.96875 -0.25q0.671875 -0.125 1.453125 -0.125zm4.8051453 3.046875l3.953125 0l0 1.390625l-3.953125 0l0 -1.390625zm9.252747 5.671875q-1.0 0 -1.765625 -0.3125q-0.75 -0.328125 -1.28125 -0.890625q-0.515625 -0.578125 -0.78125 -1.375q-0.25 -0.796875 -0.25 -1.75q0 -0.96875 0.28125 -1.765625q0.28125 -0.796875 0.796875 -1.375q0.515625 -0.59375 1.25 -0.921875q0.75 -0.328125 1.65625 -0.328125q0.5625 0 1.125 0.09375q0.5625 0.09375 1.0625 0.3125l-0.328125 1.265625q-0.34375 -0.171875 -0.78125 -0.265625q-0.4375 -0.09375 -0.9375 -0.09375q-1.234375 0 -1.90625 0.796875q-0.65625 0.78125 -0.65625 2.28125q0 0.671875 0.140625 1.234375q0.15625 0.546875 0.484375 0.953125q0.328125 0.40625 0.84375 0.625q0.515625 0.203125 1.25 0.203125q0.59375 0 1.0625 -0.109375q0.484375 -0.109375 0.75 -0.234375l0.21875 1.25q-0.140625 0.078125 -0.375 0.15625q-0.234375 0.0625 -0.546875 0.109375q-0.296875 0.0625 -0.640625 0.09375q-0.34375 0.046875 -0.671875 0.046875zm3.361908 -4.328125q0 -1.109375 0.3125 -1.921875q0.328125 -0.828125 0.859375 -1.375q0.53125 -0.546875 1.21875 -0.8125q0.6875 -0.28125 1.40625 -0.28125q1.671875 0 2.5625 1.046875q0.90625 1.046875 0.90625 3.203125q0 0.09375 0 0.25q0 0.140625 -0.015625 0.265625l-5.6875 0q0.09375 1.296875 0.75 1.96875q0.65625 0.671875 2.046875 0.671875q0.78125 0 1.3125 -0.125q0.546875 -0.140625 0.8125 -0.265625l0.203125 1.25q-0.265625 0.140625 -0.953125 0.296875q-0.671875 0.15625 -1.53125 0.15625q-1.09375 0 -1.890625 -0.328125q-0.78125 -0.328125 -1.296875 -0.890625q-0.515625 -0.578125 -0.765625 -1.375q-0.25 -0.796875 -0.25 -1.734375zm5.71875 -0.8125q0.015625 -1.015625 -0.515625 -1.65625q-0.515625 -0.65625 -1.421875 -0.65625q-0.515625 0 -0.90625 0.203125q-0.390625 0.203125 -0.671875 0.53125q-0.265625 0.3125 -0.421875 0.734375q-0.140625 0.40625 -0.1875 0.84375l4.125 0zm6.7721252 -3.546875q0.1875 0 0.4375 0.03125q0.25 0.015625 0.484375 0.0625q0.234375 0.03125 0.4375 0.078125q0.203125 0.046875 0.296875 0.078125l-0.25 1.296875q-0.1875 -0.078125 -0.59375 -0.15625q-0.40625 -0.09375 -1.046875 -0.09375q-0.40625 0 -0.828125 0.09375q-0.40625 0.078125 -0.53125 0.125l0 6.984375l-1.484375 0l0 -7.96875q0.53125 -0.1875 1.3125 -0.359375q0.78125 -0.171875 1.765625 -0.171875zm4.4885254 0.1875l3.15625 0l0 1.234375l-3.15625 0l0 3.84375q0 0.625 0.09375 1.03125q0.09375 0.40625 0.28125 0.640625q0.203125 0.234375 0.484375 0.328125q0.296875 0.09375 0.671875 0.09375q0.671875 0 1.078125 -0.140625q0.421875 -0.15625 0.578125 -0.21875l0.28125 1.234375q-0.21875 0.109375 -0.78125 0.265625q-0.5625 0.171875 -1.28125 0.171875q-0.84375 0 -1.40625 -0.203125q-0.546875 -0.21875 -0.890625 -0.65625q-0.328125 -0.4375 -0.46875 -1.0625q-0.125 -0.640625 -0.125 -1.46875l0 -7.421875l1.484375 -0.25l0 2.578125zm6.525757 8.3125l-1.484375 0l0 -8.3125l1.484375 0l0 8.3125zm-0.75 -9.828125q-0.40625 0 -0.6875 -0.265625q-0.265625 -0.265625 -0.265625 -0.703125q0 -0.453125 0.265625 -0.71875q0.28125 -0.265625 0.6875 -0.265625q0.40625 0 0.671875 0.265625q0.28125 0.265625 0.28125 0.71875q0 0.4375 -0.28125 0.703125q-0.265625 0.265625 -0.671875 0.265625zm6.563629 -2.59375q0.65625 0 1.125 0.109375q0.46875 0.09375 0.65625 0.171875l-0.265625 1.28125q-0.1875 -0.09375 -0.546875 -0.1875q-0.34375 -0.09375 -0.859375 -0.09375q-1.046875 0 -1.46875 0.578125q-0.40625 0.5625 -0.40625 1.515625l0 0.734375l3.203125 0l0 1.234375l-3.203125 0l0 7.078125l-1.484375 0l0 -9.078125q0 -1.59375 0.78125 -2.46875q0.78125 -0.875 2.46875 -0.875zm4.41037 12.421875l-1.484375 0l0 -8.3125l1.484375 0l0 8.3125zm-0.75 -9.828125q-0.40625 0 -0.6875 -0.265625q-0.265625 -0.265625 -0.265625 -0.703125q0 -0.453125 0.265625 -0.71875q0.28125 -0.265625 0.6875 -0.265625q0.40625 0 0.671875 0.265625q0.28125 0.265625 0.28125 0.71875q0 0.4375 -0.28125 0.703125q-0.265625 0.265625 -0.671875 0.265625zm6.9230347 10.015625q-1.0 0 -1.765625 -0.3125q-0.75 -0.328125 -1.28125 -0.890625q-0.515625 -0.578125 -0.78125 -1.375q-0.25 -0.796875 -0.25 -1.75q0 -0.96875 0.28125 -1.765625q0.28125 -0.796875 0.796875 -1.375q0.515625 -0.59375 1.25 -0.921875q0.75 -0.328125 1.65625 -0.328125q0.5624695 0 1.1249695 0.09375q0.5625 0.09375 1.0625 0.3125l-0.328125 1.265625q-0.34375 -0.171875 -0.78125 -0.265625q-0.4375 -0.09375 -0.9374695 -0.09375q-1.234375 0 -1.90625 0.796875q-0.65625 0.78125 -0.65625 2.28125q0 0.671875 0.140625 1.234375q0.15625 0.546875 0.484375 0.953125q0.328125 0.40625 0.84375 0.625q0.515625 0.203125 1.2499695 0.203125q0.59375 0 1.0625 -0.109375q0.484375 -0.109375 0.75 -0.234375l0.21875 1.25q-0.140625 0.078125 -0.375 0.15625q-0.234375 0.0625 -0.546875 0.109375q-0.296875 0.0625 -0.640625 0.09375q-0.34375 0.046875 -0.6718445 0.046875zm6.643097 -1.265625q0.53125 0 0.9375 -0.015625q0.40625 -0.03125 0.6875 -0.09375l0 -2.46875q-0.171875 -0.09375 -0.53125 -0.140625q-0.359375 -0.0625 -0.875 -0.0625q-0.328125 0 -0.703125 0.046875q-0.375 0.046875 -0.6875 0.203125q-0.3125 0.15625 -0.53125 0.421875q-0.203125 0.265625 -0.203125 0.6875q0 0.796875 0.515625 1.109375q0.515625 0.3125 1.390625 0.3125zm-0.125 -7.453125q0.890625 0 1.5 0.234375q0.625 0.234375 1.0 0.65625q0.375 0.421875 0.53125 1.015625q0.171875 0.578125 0.171875 1.28125l0 5.203125q-0.203125 0.03125 -0.546875 0.09375q-0.34375 0.046875 -0.78125 0.09375q-0.421875 0.046875 -0.921875 0.078125q-0.5 0.046875 -1.0 0.046875q-0.703125 0 -1.296875 -0.140625q-0.59375 -0.140625 -1.03125 -0.453125q-0.421875 -0.3125 -0.671875 -0.828125q-0.234375 -0.515625 -0.234375 -1.234375q0 -0.6875 0.28125 -1.171875q0.28125 -0.5 0.75 -0.796875q0.484375 -0.3125 1.125 -0.453125q0.640625 -0.15625 1.34375 -0.15625q0.234375 0 0.46875 0.03125q0.234375 0.015625 0.453125 0.0625q0.21875 0.046875 0.375 0.078125q0.15625 0.03125 0.234375 0.046875l0 -0.421875q0 -0.359375 -0.09375 -0.71875q-0.078125 -0.375 -0.28125 -0.640625q-0.203125 -0.28125 -0.5625 -0.453125q-0.359375 -0.171875 -0.9375 -0.171875q-0.734375 0 -1.296875 0.109375q-0.546875 0.09375 -0.8125 0.21875l-0.1875 -1.234375q0.296875 -0.125 0.96875 -0.25q0.671875 -0.125 1.453125 -0.125zm7.055176 0.21875l3.15625 0l0 1.234375l-3.15625 0l0 3.84375q0 0.625 0.09375 1.03125q0.09375 0.40625 0.28125 0.640625q0.203125 0.234375 0.484375 0.328125q0.296875 0.09375 0.671875 0.09375q0.671875 0 1.078125 -0.140625q0.421875 -0.15625 0.578125 -0.21875l0.28125 1.234375q-0.21875 0.109375 -0.78125 0.265625q-0.5625 0.171875 -1.28125 0.171875q-0.84375 0 -1.40625 -0.203125q-0.546875 -0.21875 -0.890625 -0.65625q-0.328125 -0.4375 -0.46875 -1.0625q-0.125 -0.640625 -0.125 -1.46875l0 -7.421875l1.484375 -0.25l0 2.578125zm4.572632 4.171875q0 -1.109375 0.3125 -1.921875q0.328125 -0.828125 0.859375 -1.375q0.53125 -0.546875 1.21875 -0.8125q0.6875 -0.28125 1.40625 -0.28125q1.671875 0 2.5625 1.046875q0.90625 1.046875 0.90625 3.203125q0 0.09375 0 0.25q0 0.140625 -0.015625 0.265625l-5.6875 0q0.09375 1.296875 0.75 1.96875q0.65625 0.671875 2.046875 0.671875q0.78125 0 1.3125 -0.125q0.546875 -0.140625 0.8125 -0.265625l0.203125 1.25q-0.265625 0.140625 -0.953125 0.296875q-0.671875 0.15625 -1.53125 0.15625q-1.09375 0 -1.890625 -0.328125q-0.78125 -0.328125 -1.296875 -0.890625q-0.515625 -0.578125 -0.765625 -1.375q-0.25 -0.796875 -0.25 -1.734375zm5.71875 -0.8125q0.015625 -1.015625 -0.515625 -1.65625q-0.515625 -0.65625 -1.421875 -0.65625q-0.515625 0 -0.90625 0.203125q-0.390625 0.203125 -0.671875 0.53125q-0.265625 0.3125 -0.421875 0.734375q-0.140625 0.40625 -0.1875 0.84375l4.125 0zm5.6314697 3.875q0.90625 0 1.34375 -0.234375q0.453125 -0.234375 0.453125 -0.765625q0 -0.546875 -0.4375 -0.859375q-0.4375 -0.328125 -1.421875 -0.71875q-0.484375 -0.203125 -0.921875 -0.390625q-0.4375 -0.203125 -0.765625 -0.46875q-0.3125 -0.28125 -0.515625 -0.65625q-0.1875 -0.390625 -0.1875 -0.953125q0 -1.109375 0.8125 -1.75q0.828125 -0.65625 2.234375 -0.65625q0.34375 0 0.6875 0.046875q0.359375 0.03125 0.65625 0.09375q0.3125 0.046875 0.546875 0.125q0.234375 0.0625 0.359375 0.109375l-0.265625 1.28125q-0.25 -0.140625 -0.765625 -0.265625q-0.5 -0.140625 -1.21875 -0.140625q-0.625 0 -1.09375 0.25q-0.46875 0.25 -0.46875 0.78125q0 0.265625 0.109375 0.484375q0.109375 0.203125 0.3125 0.375q0.21875 0.15625 0.53125 0.3125q0.328125 0.140625 0.78125 0.296875q0.59375 0.21875 1.046875 0.4375q0.46875 0.21875 0.796875 0.515625q0.328125 0.28125 0.5 0.6875q0.1875 0.40625 0.1875 1.0q0 1.15625 -0.859375 1.75q-0.859375 0.578125 -2.4375 0.578125q-1.109375 0 -1.734375 -0.1875q-0.625 -0.171875 -0.84375 -0.265625l0.265625 -1.28125q0.265625 0.09375 0.8125 0.28125q0.5625 0.1875 1.5 0.1875zm6.7610474 -0.75q0.015625 0.125 0.015625 0.25q0 0.125 0 0.25q0 1.015625 -0.296875 1.984375q-0.296875 0.984375 -0.796875 1.890625l-1.15625 -0.375q0.40625 -0.8125 0.53125 -1.65625q0.125 -0.828125 0.125 -1.578125q0 -0.203125 -0.015625 -0.390625q0 -0.1875 -0.015625 -0.375l1.609375 0zm13.413269 -2.328125q0 0.984375 -0.296875 1.796875q-0.28125 0.796875 -0.796875 1.375q-0.515625 0.5625 -1.25 0.875q-0.71875 0.3125 -1.5625 0.3125q-0.84375 0 -1.5625 -0.3125q-0.71875 -0.3125 -1.25 -0.875q-0.515625 -0.578125 -0.8125 -1.375q-0.28125 -0.8125 -0.28125 -1.796875q0 -0.984375 0.28125 -1.78125q0.296875 -0.8125 0.8125 -1.390625q0.53125 -0.578125 1.25 -0.890625q0.71875 -0.3125 1.5625 -0.3125q0.84375 0 1.5625 0.3125q0.734375 0.3125 1.25 0.890625q0.515625 0.578125 0.796875 1.390625q0.296875 0.796875 0.296875 1.78125zm-1.546875 0q0 -1.40625 -0.640625 -2.234375q-0.625 -0.828125 -1.71875 -0.828125q-1.09375 0 -1.71875 0.828125q-0.625 0.828125 -0.625 2.234375q0 1.40625 0.625 2.234375q0.625 0.8125 1.71875 0.8125q1.09375 0 1.71875 -0.8125q0.640625 -0.828125 0.640625 -2.234375zm9.424377 0.015625q0 -1.453125 -0.734375 -2.234375q-0.71875 -0.796875 -1.90625 -0.796875q-0.671875 0 -1.0625 0.046875q-0.375 0.046875 -0.59375 0.109375l0 5.25q0.28125 0.234375 0.78125 0.4375q0.515625 0.203125 1.125 0.203125q0.640625 0 1.09375 -0.21875q0.453125 -0.234375 0.734375 -0.640625q0.296875 -0.421875 0.421875 -0.96875q0.140625 -0.546875 0.140625 -1.1875zm1.546875 0q0 0.9375 -0.25 1.75q-0.25 0.796875 -0.734375 1.375q-0.46875 0.5625 -1.171875 0.890625q-0.6875 0.3125 -1.59375 0.3125q-0.71875 0 -1.265625 -0.1875q-0.546875 -0.1875 -0.828125 -0.375l0 3.328125l-1.484375 0l0 -11.015625q0.53125 -0.125 1.3125 -0.28125q0.796875 -0.15625 1.84375 -0.15625q0.953125 0 1.71875 0.3125q0.765625 0.296875 1.3125 0.859375q0.546875 0.5625 0.84375 1.375q0.296875 0.796875 0.296875 1.8125zm1.6271362 0q0 -1.109375 0.3125 -1.921875q0.328125 -0.828125 0.859375 -1.375q0.53125 -0.546875 1.21875 -0.8125q0.6875 -0.28125 1.40625 -0.28125q1.671875 0 2.5625 1.046875q0.90625 1.046875 0.90625 3.203125q0 0.09375 0 0.25q0 0.140625 -0.015625 0.265625l-5.6875 0q0.09375 1.296875 0.75 1.96875q0.65625 0.671875 2.046875 0.671875q0.78125 0 1.3125 -0.125q0.546875 -0.140625 0.8125 -0.265625l0.203125 1.25q-0.265625 0.140625 -0.953125 0.296875q-0.671875 0.15625 -1.53125 0.15625q-1.09375 0 -1.890625 -0.328125q-0.78125 -0.328125 -1.296875 -0.890625q-0.515625 -0.578125 -0.765625 -1.375q-0.25 -0.796875 -0.25 -1.734375zm5.71875 -0.8125q0.015625 -1.015625 -0.515625 -1.65625q-0.515625 -0.65625 -1.421875 -0.65625q-0.515625 0 -0.90625 0.203125q-0.390625 0.203125 -0.671875 0.53125q-0.265625 0.3125 -0.421875 0.734375q-0.140625 0.40625 -0.1875 0.84375l4.125 0zm3.6940308 -3.125q0.515625 -0.125 1.359375 -0.265625q0.84375 -0.15625 1.953125 -0.15625q0.984375 0 1.640625 0.28125q0.65625 0.28125 1.046875 0.796875q0.40625 0.5 0.5625 1.203125q0.15625 0.703125 0.15625 1.546875l0 4.671875l-1.484375 0l0 -4.359375q0 -0.765625 -0.109375 -1.296875q-0.109375 -0.546875 -0.34375 -0.875q-0.234375 -0.34375 -0.640625 -0.5q-0.390625 -0.15625 -0.984375 -0.15625q-0.25 0 -0.5 0.015625q-0.25 0.015625 -0.484375 0.046875q-0.234375 0.015625 -0.421875 0.046875q-0.1875 0.03125 -0.265625 0.046875l0 7.03125l-1.484375 0l0 -8.078125zm11.121521 7.0q0.90625 0 1.34375 -0.234375q0.453125 -0.234375 0.453125 -0.765625q0 -0.546875 -0.4375 -0.859375q-0.4375 -0.328125 -1.421875 -0.71875q-0.484375 -0.203125 -0.921875 -0.390625q-0.4375 -0.203125 -0.765625 -0.46875q-0.3125 -0.28125 -0.515625 -0.65625q-0.1875 -0.390625 -0.1875 -0.953125q0 -1.109375 0.8125 -1.75q0.828125 -0.65625 2.234375 -0.65625q0.34375 0 0.6875 0.046875q0.359375 0.03125 0.65625 0.09375q0.3125 0.046875 0.546875 0.125q0.234375 0.0625 0.359375 0.109375l-0.265625 1.28125q-0.25 -0.140625 -0.765625 -0.265625q-0.5 -0.140625 -1.21875 -0.140625q-0.625 0 -1.09375 0.25q-0.46875 0.25 -0.46875 0.78125q0 0.265625 0.109375 0.484375q0.109375 0.203125 0.3125 0.375q0.21875 0.15625 0.53125 0.3125q0.328125 0.140625 0.78125 0.296875q0.59375 0.21875 1.046875 0.4375q0.46875 0.21875 0.796875 0.515625q0.328125 0.28125 0.5 0.6875q0.1875 0.40625 0.1875 1.0q0 1.15625 -0.859375 1.75q-0.859375 0.578125 -2.4375 0.578125q-1.109375 0 -1.734375 -0.1875q-0.625 -0.171875 -0.84375 -0.265625l0.265625 -1.28125q0.265625 0.09375 0.8125 0.28125q0.5625 0.1875 1.5 0.1875zm7.1360474 0q0.90625 0 1.34375 -0.234375q0.453125 -0.234375 0.453125 -0.765625q0 -0.546875 -0.4375 -0.859375q-0.4375 -0.328125 -1.421875 -0.71875q-0.484375 -0.203125 -0.921875 -0.390625q-0.4375 -0.203125 -0.765625 -0.46875q-0.3125 -0.28125 -0.515625 -0.65625q-0.1875 -0.390625 -0.1875 -0.953125q0 -1.109375 0.8125 -1.75q0.828125 -0.65625 2.234375 -0.65625q0.34375 0 0.6875 0.046875q0.359375 0.03125 0.65625 0.09375q0.3125 0.046875 0.546875 0.125q0.234375 0.0625 0.359375 0.109375l-0.265625 1.28125q-0.25 -0.140625 -0.765625 -0.265625q-0.5 -0.140625 -1.21875 -0.140625q-0.625 0 -1.09375 0.25q-0.46875 0.25 -0.46875 0.78125q0 0.265625 0.109375 0.484375q0.109375 0.203125 0.3125 0.375q0.21875 0.15625 0.53125 0.3125q0.328125 0.140625 0.78125 0.296875q0.59375 0.21875 1.046875 0.4375q0.46875 0.21875 0.796875 0.515625q0.328125 0.28125 0.5 0.6875q0.1875 0.40625 0.1875 1.0q0 1.15625 -0.859375 1.75q-0.859375 0.578125 -2.4375 0.578125q-1.109375 0 -1.734375 -0.1875q-0.625 -0.171875 -0.84375 -0.265625l0.265625 -1.28125q0.265625 0.09375 0.8125 0.28125q0.5625 0.1875 1.5 0.1875zm7.6984863 1.234375q-1.375 -0.03125 -1.953125 -0.578125q-0.578125 -0.5625 -0.578125 -1.75l0 -9.984375l1.484375 -0.265625l0 10.0q0 0.375 0.0625 0.625q0.0625 0.234375 0.203125 0.375q0.15625 0.140625 0.390625 0.21875q0.234375 0.0625 0.59375 0.109375l-0.203125 1.25z" fill-rule="nonzero"></path><path fill="#ffffff" d="m426.24512 378.1203l0 1.34375l-3.484375 0l0 9.75l-1.546875 0l0 -9.75l-3.5 0l0 -1.34375l8.53125 0zm3.0243835 11.09375l-1.484375 0l0 -8.3125l1.484375 0l0 8.3125zm-0.75 -9.828125q-0.40625 0 -0.6875 -0.265625q-0.265625 -0.265625 -0.265625 -0.703125q0 -0.453125 0.265625 -0.71875q0.28125 -0.265625 0.6875 -0.265625q0.40625 0 0.671875 0.265625q0.28125 0.265625 0.28125 0.71875q0 0.4375 -0.28125 0.703125q-0.265625 0.265625 -0.671875 0.265625zm3.3136292 1.75q0.515625 -0.125 1.34375 -0.265625q0.84375 -0.15625 1.953125 -0.15625q0.796875 0 1.34375 0.21875q0.546875 0.21875 0.90625 0.640625q0.109375 -0.09375 0.34375 -0.234375q0.25 -0.140625 0.59375 -0.265625q0.359375 -0.140625 0.78125 -0.25q0.4375 -0.109375 0.9375 -0.109375q0.96875 0 1.5625 0.28125q0.609375 0.28125 0.9531555 0.796875q0.359375 0.515625 0.46875 1.21875q0.125 0.703125 0.125 1.53125l0 4.671875l-1.4844055 0l0 -4.359375q0 -0.734375 -0.078125 -1.25q-0.078125 -0.53125 -0.28125 -0.875q-0.1875 -0.359375 -0.53125 -0.53125q-0.34375 -0.171875 -0.890625 -0.171875q-0.75 0 -1.25 0.203125q-0.484375 0.203125 -0.65625 0.359375q0.125 0.421875 0.1875 0.921875q0.078125 0.484375 0.078125 1.03125l0 4.671875l-1.5 0l0 -4.359375q0 -0.734375 -0.078125 -1.25q-0.078125 -0.53125 -0.28125 -0.875q-0.203125 -0.359375 -0.546875 -0.53125q-0.34375 -0.171875 -0.859375 -0.171875q-0.234375 0 -0.484375 0.015625q-0.25 0.015625 -0.484375 0.046875q-0.234375 0.015625 -0.4375 0.046875q-0.1875 0.03125 -0.25 0.046875l0 7.03125l-1.484375 0l0 -8.078125zm13.3072815 3.9375q0 -1.109375 0.3125 -1.921875q0.328125 -0.828125 0.859375 -1.375q0.53125 -0.546875 1.21875 -0.8125q0.6875 -0.28125 1.40625 -0.28125q1.671875 0 2.5625 1.046875q0.90625 1.046875 0.90625 3.203125q0 0.09375 0 0.25q0 0.140625 -0.015625 0.265625l-5.6875 0q0.09375 1.296875 0.75 1.96875q0.65625 0.671875 2.046875 0.671875q0.78125 0 1.3125 -0.125q0.546875 -0.140625 0.8125 -0.265625l0.203125 1.25q-0.265625 0.140625 -0.953125 0.296875q-0.671875 0.15625 -1.53125 0.15625q-1.09375 0 -1.890625 -0.328125q-0.78125 -0.328125 -1.296875 -0.890625q-0.515625 -0.578125 -0.765625 -1.375q-0.25 -0.796875 -0.25 -1.734375zm5.71875 -0.8125q0.015625 -1.015625 -0.515625 -1.65625q-0.515625 -0.65625 -1.421875 -0.65625q-0.515625 0 -0.90625 0.203125q-0.390625 0.203125 -0.671875 0.53125q-0.265625 0.3125 -0.421875 0.734375q-0.140625 0.40625 -0.1875 0.84375l4.125 0zm9.209656 -2.25q-0.328125 0.375 -0.890625 1.046875q-0.546875 0.671875 -1.1875 1.484375q-0.625 0.8125 -1.265625 1.71875q-0.625 0.890625 -1.09375 1.703125l4.5625 0l0 1.25l-6.34375 0l0 -0.984375q0.375 -0.71875 0.9375 -1.5625q0.5625 -0.84375 1.171875 -1.6875q0.625 -0.84375 1.203125 -1.578125q0.59375 -0.75 1.015625 -1.265625l-4.109375 0l0 -1.234375l6.0 0l0 1.109375zm9.364136 3.046875q0 0.984375 -0.296875 1.796875q-0.28125 0.796875 -0.796875 1.375q-0.515625 0.5625 -1.25 0.875q-0.71875 0.3125 -1.5625 0.3125q-0.84375 0 -1.5625 -0.3125q-0.71875 -0.3125 -1.25 -0.875q-0.515625 -0.578125 -0.8125 -1.375q-0.28125 -0.8125 -0.28125 -1.796875q0 -0.984375 0.28125 -1.78125q0.296875 -0.8125 0.8125 -1.390625q0.53125 -0.578125 1.25 -0.890625q0.71875 -0.3125 1.5625 -0.3125q0.84375 0 1.5625 0.3125q0.734375 0.3125 1.25 0.890625q0.515625 0.578125 0.796875 1.390625q0.296875 0.796875 0.296875 1.78125zm-1.546875 0q0 -1.40625 -0.640625 -2.234375q-0.625 -0.828125 -1.71875 -0.828125q-1.09375 0 -1.71875 0.828125q-0.625 0.828125 -0.625 2.234375q0 1.40625 0.625 2.234375q0.625 0.8125 1.71875 0.8125q1.09375 0 1.71875 -0.8125q0.640625 -0.828125 0.640625 -2.234375zm3.6431274 -3.921875q0.515625 -0.125 1.359375 -0.265625q0.84375 -0.15625 1.953125 -0.15625q0.984375 0 1.640625 0.28125q0.65625 0.28125 1.046875 0.796875q0.40625 0.5 0.5625 1.203125q0.15625 0.703125 0.15625 1.546875l0 4.671875l-1.484375 0l0 -4.359375q0 -0.765625 -0.109375 -1.296875q-0.109375 -0.546875 -0.34375 -0.875q-0.234375 -0.34375 -0.640625 -0.5q-0.390625 -0.15625 -0.984375 -0.15625q-0.25 0 -0.5 0.015625q-0.25 0.015625 -0.484375 0.046875q-0.234375 0.015625 -0.421875 0.046875q-0.1875 0.03125 -0.265625 0.046875l0 7.03125l-1.484375 0l0 -8.078125zm8.715271 3.9375q0 -1.109375 0.3125 -1.921875q0.328125 -0.828125 0.859375 -1.375q0.53125 -0.546875 1.21875 -0.8125q0.6875 -0.28125 1.40625 -0.28125q1.671875 0 2.5625 1.046875q0.90625 1.046875 0.90625 3.203125q0 0.09375 0 0.25q0 0.140625 -0.015625 0.265625l-5.6875 0q0.09375 1.296875 0.75 1.96875q0.65625 0.671875 2.046875 0.671875q0.78125 0 1.3125 -0.125q0.546875 -0.140625 0.8125 -0.265625l0.203125 1.25q-0.265625 0.140625 -0.953125 0.296875q-0.671875 0.15625 -1.53125 0.15625q-1.09375 0 -1.890625 -0.328125q-0.78125 -0.328125 -1.296875 -0.890625q-0.515625 -0.578125 -0.765625 -1.375q-0.25 -0.796875 -0.25 -1.734375zm5.71875 -0.8125q0.015625 -1.015625 -0.515625 -1.65625q-0.515625 -0.65625 -1.421875 -0.65625q-0.515625 0 -0.90625 0.203125q-0.390625 0.203125 -0.671875 0.53125q-0.265625 0.3125 -0.421875 0.734375q-0.140625 0.40625 -0.1875 0.84375l4.125 0zm5.459656 4.09375q0 0.421875 -0.296875 0.75q-0.28125 0.3125 -0.78125 0.3125q-0.5 0 -0.796875 -0.3125q-0.28125 -0.328125 -0.28125 -0.75q0 -0.4375 0.28125 -0.75q0.296875 -0.328125 0.796875 -0.328125q0.5 0 0.78125 0.328125q0.296875 0.3125 0.296875 0.75zm0 -6.0q0 0.421875 -0.296875 0.75q-0.28125 0.3125 -0.78125 0.3125q-0.5 0 -0.796875 -0.3125q-0.28125 -0.328125 -0.28125 -0.75q0 -0.4375 0.28125 -0.75q0.296875 -0.328125 0.796875 -0.328125q0.5 0 0.78125 0.328125q0.296875 0.3125 0.296875 0.75zm7.257019 -1.453125l3.15625 0l0 1.234375l-3.15625 0l0 3.84375q0 0.625 0.09375 1.03125q0.09375 0.40625 0.28125 0.640625q0.203125 0.234375 0.484375 0.328125q0.296875 0.09375 0.671875 0.09375q0.671875 0 1.078125 -0.140625q0.421875 -0.15625 0.578125 -0.21875l0.28125 1.234375q-0.21875 0.109375 -0.78125 0.265625q-0.5625 0.171875 -1.28125 0.171875q-0.84375 0 -1.40625 -0.203125q-0.546875 -0.21875 -0.890625 -0.65625q-0.328125 -0.4375 -0.46875 -1.0625q-0.125 -0.640625 -0.125 -1.46875l0 -7.421875l1.484375 -0.25l0 2.578125zm10.557007 1.109375q-0.328125 0.375 -0.890625 1.046875q-0.546875 0.671875 -1.1875 1.484375q-0.625 0.8125 -1.265625 1.71875q-0.625 0.890625 -1.09375 1.703125l4.5625 0l0 1.25l-6.34375 0l0 -0.984375q0.375 -0.71875 0.9375 -1.5625q0.5625 -0.84375 1.171875 -1.6875q0.625 -0.84375 1.203125 -1.578125q0.59375 -0.75 1.015625 -1.265625l-4.109375 0l0 -1.234375l6.0 0l0 1.109375zm7.395355 0.640625q-0.265625 -0.21875 -0.78125 -0.421875q-0.515625 -0.21875 -1.125 -0.21875q-0.640625 0 -1.09375 0.234375q-0.453125 0.234375 -0.75 0.640625q-0.28125 0.40625 -0.40625 0.96875q-0.125 0.5625 -0.125 1.203125q0 1.453125 0.71875 2.25q0.71875 0.78125 1.921875 0.78125q0.59375 0 1.0 -0.046875q0.421875 -0.0625 0.640625 -0.125l0 -5.265625zm0 -5.59375l1.484375 -0.265625l0 12.1875q-0.515625 0.140625 -1.3125 0.28125q-0.796875 0.140625 -1.84375 0.140625q-0.953125 0 -1.71875 -0.296875q-0.765625 -0.3125 -1.3124695 -0.859375q-0.546875 -0.5625 -0.84375 -1.375q-0.296875 -0.8125 -0.296875 -1.8125q0 -0.96875 0.25 -1.765625q0.25 -0.796875 0.71875 -1.375q0.48434448 -0.578125 1.1718445 -0.890625q0.703125 -0.328125 1.609375 -0.328125q0.71875 0 1.265625 0.203125q0.5625 0.1875 0.828125 0.359375l0 -4.203125zm6.861511 11.078125q0.53125 0 0.9375 -0.015625q0.40625 -0.03125 0.6875 -0.09375l0 -2.46875q-0.171875 -0.09375 -0.53125 -0.140625q-0.359375 -0.0625 -0.875 -0.0625q-0.328125 0 -0.703125 0.046875q-0.375 0.046875 -0.6875 0.203125q-0.3125 0.15625 -0.53125 0.421875q-0.203125 0.265625 -0.203125 0.6875q0 0.796875 0.515625 1.109375q0.515625 0.3125 1.390625 0.3125zm-0.125 -7.453125q0.890625 0 1.5 0.234375q0.625 0.234375 1.0 0.65625q0.375 0.421875 0.53125 1.015625q0.171875 0.578125 0.171875 1.28125l0 5.203125q-0.203125 0.03125 -0.546875 0.09375q-0.34375 0.046875 -0.78125 0.09375q-0.421875 0.046875 -0.921875 0.078125q-0.5 0.046875 -1.0 0.046875q-0.703125 0 -1.296875 -0.140625q-0.59375 -0.140625 -1.03125 -0.453125q-0.421875 -0.3125 -0.671875 -0.828125q-0.234375 -0.515625 -0.234375 -1.234375q0 -0.6875 0.28125 -1.171875q0.28125 -0.5 0.75 -0.796875q0.484375 -0.3125 1.125 -0.453125q0.640625 -0.15625 1.34375 -0.15625q0.234375 0 0.46875 0.03125q0.234375 0.015625 0.453125 0.0625q0.21875 0.046875 0.375 0.078125q0.15625 0.03125 0.234375 0.046875l0 -0.421875q0 -0.359375 -0.09375 -0.71875q-0.078125 -0.375 -0.28125 -0.640625q-0.203125 -0.28125 -0.5625 -0.453125q-0.359375 -0.171875 -0.9375 -0.171875q-0.734375 0 -1.296875 0.109375q-0.546875 0.09375 -0.8125 0.21875l-0.1875 -1.234375q0.296875 -0.125 0.96875 -0.25q0.671875 -0.125 1.453125 -0.125zm7.055176 0.21875l3.15625 0l0 1.234375l-3.15625 0l0 3.84375q0 0.625 0.09375 1.03125q0.09375 0.40625 0.28125 0.640625q0.203125 0.234375 0.484375 0.328125q0.296875 0.09375 0.671875 0.09375q0.671875 0 1.078125 -0.140625q0.421875 -0.15625 0.578125 -0.21875l0.28125 1.234375q-0.21875 0.109375 -0.78125 0.265625q-0.5625 0.171875 -1.28125 0.171875q-0.84375 0 -1.40625 -0.203125q-0.546875 -0.21875 -0.890625 -0.65625q-0.328125 -0.4375 -0.46875 -1.0625q-0.125 -0.640625 -0.125 -1.46875l0 -7.421875l1.484375 -0.25l0 2.578125zm7.853882 7.234375q0.53125 0 0.9375 -0.015625q0.40625 -0.03125 0.6875 -0.09375l0 -2.46875q-0.171875 -0.09375 -0.53125 -0.140625q-0.359375 -0.0625 -0.875 -0.0625q-0.328125 0 -0.703125 0.046875q-0.375 0.046875 -0.6875 0.203125q-0.3125 0.15625 -0.53125 0.421875q-0.203125 0.265625 -0.203125 0.6875q0 0.796875 0.515625 1.109375q0.515625 0.3125 1.390625 0.3125zm-0.125 -7.453125q0.890625 0 1.5 0.234375q0.625 0.234375 1.0 0.65625q0.375 0.421875 0.53125 1.015625q0.171875 0.578125 0.171875 1.28125l0 5.203125q-0.203125 0.03125 -0.546875 0.09375q-0.34375 0.046875 -0.78125 0.09375q-0.421875 0.046875 -0.921875 0.078125q-0.5 0.046875 -1.0 0.046875q-0.703125 0 -1.296875 -0.140625q-0.59375 -0.140625 -1.03125 -0.453125q-0.421875 -0.3125 -0.671875 -0.828125q-0.234375 -0.515625 -0.234375 -1.234375q0 -0.6875 0.28125 -1.171875q0.28125 -0.5 0.75 -0.796875q0.484375 -0.3125 1.125 -0.453125q0.640625 -0.15625 1.34375 -0.15625q0.234375 0 0.46875 0.03125q0.234375 0.015625 0.453125 0.0625q0.21875 0.046875 0.375 0.078125q0.15625 0.03125 0.234375 0.046875l0 -0.421875q0 -0.359375 -0.09375 -0.71875q-0.078125 -0.375 -0.28125 -0.640625q-0.203125 -0.28125 -0.5625 -0.453125q-0.359375 -0.171875 -0.9375 -0.171875q-0.734375 0 -1.296875 0.109375q-0.546875 0.09375 -0.8125 0.21875l-0.1875 -1.234375q0.296875 -0.125 0.96875 -0.25q0.671875 -0.125 1.453125 -0.125z" fill-rule="nonzero"></path><path fill="#6fa8dc" d="m186.28346 186.33202l587.4331 0l0 106.20473l-587.4331 0z" fill-rule="evenodd"></path><path stroke="#ffffff" stroke-width="1.0" stroke-linejoin="round" stroke-linecap="butt" d="m186.28346 186.33202l587.4331 0l0 106.20473l-587.4331 0z" fill-rule="evenodd"></path><path fill="#ffffff" d="m394.92294 245.04189q2.890625 0 2.890625 -1.96875q0 -0.609375 -0.265625 -1.03125q-0.25 -0.4375 -0.6875 -0.75q-0.4375 -0.3125 -1.0 -0.53125q-0.546875 -0.234375 -1.171875 -0.46875q-0.734375 -0.25 -1.375 -0.5625q-0.640625 -0.3125 -1.125 -0.734375q-0.46875 -0.4375 -0.75 -1.015625q-0.265625 -0.59375 -0.265625 -1.421875q0 -1.734375 1.171875 -2.703125q1.171875 -0.96875 3.25 -0.96875q1.203125 0 2.171875 0.265625q0.984375 0.25 1.4375 0.546875l-0.59375 1.5q-0.390625 -0.25 -1.1875 -0.484375q-0.78125 -0.234375 -1.828125 -0.234375q-0.53125 0 -1.0 0.125q-0.453125 0.109375 -0.796875 0.34375q-0.328125 0.21875 -0.53125 0.578125q-0.203125 0.34375 -0.203125 0.8125q0 0.53125 0.203125 0.890625q0.21875 0.359375 0.59375 0.640625q0.390625 0.28125 0.890625 0.515625q0.5 0.21875 1.109375 0.4375q0.859375 0.34375 1.5625 0.6875q0.71875 0.34375 1.234375 0.828125q0.53125 0.46875 0.8125 1.125q0.28125 0.65625 0.28125 1.578125q0 1.734375 -1.265625 2.671875q-1.265625 0.921875 -3.5625 0.921875q-0.78125 0 -1.4375 -0.109375q-0.640625 -0.09375 -1.15625 -0.234375q-0.515625 -0.140625 -0.890625 -0.296875q-0.359375 -0.171875 -0.578125 -0.28125l0.546875 -1.53125q0.4375 0.25 1.328125 0.5625q0.90625 0.296875 2.1875 0.296875zm6.20636 -3.609375q0 -1.3125 0.375 -2.28125q0.390625 -0.984375 1.015625 -1.625q0.625 -0.65625 1.4375 -0.96875q0.8125 -0.328125 1.671875 -0.328125q2.0 0 3.0625 1.25q1.0625 1.234375 1.0625 3.78125q0 0.109375 0 0.296875q0 0.1875 -0.015625 0.328125l-6.765625 0q0.109375 1.546875 0.890625 2.34375q0.78125 0.796875 2.4375 0.796875q0.921875 0 1.5625 -0.15625q0.640625 -0.171875 0.953125 -0.328125l0.25 1.484375q-0.3125 0.171875 -1.125 0.359375q-0.8125 0.203125 -1.828125 0.203125q-1.296875 0 -2.234375 -0.390625q-0.9375 -0.390625 -1.546875 -1.078125q-0.609375 -0.6875 -0.90625 -1.625q-0.296875 -0.9375 -0.296875 -2.0625zm6.78125 -0.96875q0.015625 -1.203125 -0.609375 -1.96875q-0.609375 -0.765625 -1.6875 -0.765625q-0.609375 0 -1.078125 0.234375q-0.46875 0.234375 -0.796875 0.625q-0.3125 0.375 -0.5 0.875q-0.171875 0.484375 -0.234375 1.0l4.90625 0zm7.8507385 -4.203125q0.21875 0 0.515625 0.03125q0.296875 0.03125 0.578125 0.078125q0.296875 0.046875 0.53125 0.09375q0.234375 0.046875 0.34375 0.09375l-0.296875 1.53125q-0.21875 -0.078125 -0.703125 -0.171875q-0.484375 -0.109375 -1.234375 -0.109375q-0.5 0 -0.984375 0.109375q-0.484375 0.09375 -0.640625 0.140625l0 8.296875l-1.765625 0l0 -9.46875q0.625 -0.21875 1.5625 -0.421875q0.9375 -0.203125 2.09375 -0.203125zm11.263794 0.21875q-0.734375 2.765625 -1.734375 5.3125q-1.0 2.546875 -1.9375 4.5625l-1.59375 0q-0.921875 -2.015625 -1.921875 -4.5625q-1.0 -2.546875 -1.75 -5.3125l1.90625 0q0.234375 0.921875 0.546875 1.984375q0.3125 1.046875 0.65625 2.09375q0.359375 1.03125 0.71875 2.0q0.359375 0.96875 0.6875 1.71875q0.3125 -0.75 0.671875 -1.71875q0.375 -0.96875 0.71875 -2.0q0.359375 -1.046875 0.671875 -2.09375q0.3125 -1.0625 0.53125 -1.984375l1.828125 0zm3.412323 9.875l-1.765625 0l0 -9.875l1.765625 0l0 9.875zm-0.890625 -11.671875q-0.46875 0 -0.8125 -0.3125q-0.328125 -0.3125 -0.328125 -0.84375q0 -0.53125 0.328125 -0.84375q0.34375 -0.3125 0.8125 -0.3125q0.484375 0 0.8125 0.3125q0.328125 0.3125 0.328125 0.84375q0 0.53125 -0.328125 0.84375q-0.328125 0.3125 -0.8125 0.3125zm8.141907 11.90625q-1.203125 0 -2.109375 -0.375q-0.890625 -0.390625 -1.515625 -1.078125q-0.609375 -0.6875 -0.921875 -1.625q-0.296875 -0.9375 -0.296875 -2.078125q0 -1.140625 0.328125 -2.09375q0.34375 -0.953125 0.9375 -1.640625q0.609375 -0.6875 1.484375 -1.078125q0.890625 -0.390625 1.984375 -0.390625q0.65625 0 1.3125 0.109375q0.671875 0.109375 1.28125 0.359375l-0.390625 1.5q-0.40625 -0.1875 -0.9375 -0.296875q-0.515625 -0.109375 -1.09375 -0.109375q-1.484375 0 -2.28125 0.9375q-0.78125 0.921875 -0.78125 2.703125q0 0.796875 0.171875 1.46875q0.1875 0.65625 0.578125 1.140625q0.390625 0.46875 1.0 0.734375q0.609375 0.25 1.484375 0.25q0.703125 0 1.265625 -0.125q0.578125 -0.140625 0.890625 -0.296875l0.25 1.484375q-0.15625 0.09375 -0.4375 0.1875q-0.28125 0.078125 -0.640625 0.140625q-0.359375 0.078125 -0.78125 0.125q-0.40625 0.046875 -0.78125 0.046875zm3.8313904 -5.15625q0 -1.3125 0.375 -2.28125q0.39065552 -0.984375 1.0156555 -1.625q0.625 -0.65625 1.4375 -0.96875q0.8125 -0.328125 1.671875 -0.328125q2.0 0 3.0625 1.25q1.0625 1.234375 1.0625 3.78125q0 0.109375 0 0.296875q0 0.1875 -0.015625 0.328125l-6.765625 0q0.109375 1.546875 0.890625 2.34375q0.78125 0.796875 2.4375 0.796875q0.921875 0 1.5625 -0.15625q0.640625 -0.171875 0.953125 -0.328125l0.25 1.484375q-0.3125 0.171875 -1.125 0.359375q-0.8125 0.203125 -1.828125 0.203125q-1.296875 0 -2.234375 -0.390625q-0.9375 -0.390625 -1.546875 -1.078125q-0.6094055 -0.6875 -0.9062805 -1.625q-0.296875 -0.9375 -0.296875 -2.0625zm6.7812805 -0.96875q0.015625 -1.203125 -0.609375 -1.96875q-0.609375 -0.765625 -1.6875 -0.765625q-0.609375 0 -1.078125 0.234375q-0.46875 0.234375 -0.796875 0.625q-0.3125 0.375 -0.5 0.875q-0.171875 0.484375 -0.234375 1.0l4.90625 0zm10.269684 -3.546875q0.328125 -0.21875 0.984375 -0.4375q0.65625 -0.234375 1.515625 -0.234375q1.0625 0 1.890625 0.390625q0.828125 0.375 1.390625 1.0625q0.578125 0.671875 0.859375 1.625q0.296875 0.953125 0.296875 2.09375q0 1.1875 -0.359375 2.15625q-0.34375 0.953125 -0.984375 1.625q-0.640625 0.65625 -1.5625 1.03125q-0.90625 0.359375 -2.046875 0.359375q-1.234375 0 -2.1875 -0.171875q-0.953125 -0.171875 -1.5625 -0.34375l0 -14.15625l1.765625 -0.3125l0 5.3125zm0 7.90625q0.265625 0.0625 0.75 0.140625q0.484375 0.0625 1.21875 0.0625q1.421875 0 2.265625 -0.9375q0.859375 -0.953125 0.859375 -2.671875q0 -0.765625 -0.15625 -1.421875q-0.140625 -0.671875 -0.484375 -1.15625q-0.34375 -0.484375 -0.890625 -0.75q-0.53125 -0.28125 -1.296875 -0.28125q-0.71875 0 -1.328125 0.25q-0.609375 0.234375 -0.9375 0.5l0 6.265625zm10.988556 1.53125l-1.765625 0l0 -9.875l1.765625 0l0 9.875zm-0.890625 -11.671875q-0.46875 0 -0.8125 -0.3125q-0.328125 -0.3125 -0.328125 -0.84375q0 -0.53125 0.328125 -0.84375q0.34375 -0.3125 0.8125 -0.3125q0.484375 0 0.8125 0.3125q0.328125 0.3125 0.328125 0.84375q0 0.53125 -0.328125 0.84375q-0.328125 0.3125 -0.8125 0.3125zm3.8450317 2.078125q0.609375 -0.15625 1.609375 -0.328125q1.015625 -0.171875 2.328125 -0.171875q1.171875 0 1.953125 0.34375q0.78125 0.328125 1.25 0.921875q0.46875 0.59375 0.65625 1.4375q0.1875 0.828125 0.1875 1.84375l0 5.546875l-1.765625 0l0 -5.171875q0 -0.90625 -0.125 -1.546875q-0.125 -0.65625 -0.40625 -1.046875q-0.28125 -0.40625 -0.765625 -0.578125q-0.46875 -0.1875 -1.171875 -0.1875q-0.28125 0 -0.59375 0.015625q-0.296875 0.015625 -0.578125 0.046875q-0.28125 0.03125 -0.5 0.078125q-0.21875 0.03125 -0.3125 0.046875l0 8.34375l-1.765625 0l0 -9.59375zm14.052429 8.328125q0.625 0 1.109375 -0.03125q0.484375 -0.03125 0.8125 -0.109375l0 -2.9375q-0.1875 -0.109375 -0.625 -0.171875q-0.421875 -0.0625 -1.03125 -0.0625q-0.390625 0 -0.84375 0.0625q-0.4375 0.046875 -0.8125 0.234375q-0.375 0.171875 -0.625 0.484375q-0.234375 0.3125 -0.234375 0.828125q0 0.953125 0.59375 1.328125q0.609375 0.375 1.65625 0.375zm-0.140625 -8.859375q1.0625 0 1.78125 0.28125q0.734375 0.265625 1.171875 0.78125q0.453125 0.5 0.640625 1.1875q0.203125 0.6875 0.203125 1.53125l0 6.171875q-0.234375 0.03125 -0.640625 0.109375q-0.40625 0.0625 -0.921875 0.109375q-0.515625 0.0625 -1.109375 0.109375q-0.59375 0.046875 -1.1875 0.046875q-0.84375 0 -1.546875 -0.171875q-0.703125 -0.171875 -1.21875 -0.53125q-0.5 -0.375 -0.796875 -0.984375q-0.28125 -0.609375 -0.28125 -1.453125q0 -0.828125 0.328125 -1.40625q0.34375 -0.59375 0.90625 -0.953125q0.578125 -0.359375 1.328125 -0.53125q0.765625 -0.171875 1.609375 -0.171875q0.265625 0 0.546875 0.03125q0.28125 0.015625 0.53125 0.0625q0.265625 0.046875 0.453125 0.09375q0.1875 0.03125 0.265625 0.0625l0 -0.5q0 -0.4375 -0.09375 -0.859375q-0.09375 -0.4375 -0.34375 -0.765625q-0.25 -0.328125 -0.671875 -0.53125q-0.421875 -0.203125 -1.109375 -0.203125q-0.875 0 -1.53125 0.125q-0.65625 0.125 -0.984375 0.25l-0.203125 -1.453125q0.34375 -0.15625 1.140625 -0.296875q0.796875 -0.140625 1.734375 -0.140625zm10.191711 0.03125q0.21875 0 0.515625 0.03125q0.296875 0.03125 0.578125 0.078125q0.296875 0.046875 0.53125 0.09375q0.234375 0.046875 0.34375 0.09375l-0.296875 1.53125q-0.21875 -0.078125 -0.703125 -0.171875q-0.484375 -0.109375 -1.234375 -0.109375q-0.5 0 -0.984375 0.109375q-0.484375 0.09375 -0.640625 0.140625l0 8.296875l-1.765625 0l0 -9.46875q0.625 -0.21875 1.5625 -0.421875q0.9375 -0.203125 2.09375 -0.203125zm2.388794 11.9375q0.203125 0.09375 0.53125 0.171875q0.34375 0.09375 0.671875 0.09375q1.046875 0 1.625 -0.46875q0.59375 -0.46875 1.0625 -1.5q-1.1875 -2.28125 -2.234375 -4.84375q-1.03125 -2.5625 -1.71875 -5.171875l1.90625 0q0.203125 0.84375 0.5 1.84375q0.296875 0.984375 0.65625 2.03125q0.359375 1.046875 0.78125 2.09375q0.421875 1.03125 0.875 2.0q0.71875 -1.984375 1.25 -3.9375q0.53125 -1.96875 1.015625 -4.03125l1.8125 0q-0.671875 2.78125 -1.515625 5.359375q-0.828125 2.578125 -1.796875 4.8125q-0.390625 0.859375 -0.796875 1.46875q-0.40625 0.625 -0.90625 1.015625q-0.484375 0.40625 -1.109375 0.59375q-0.609375 0.203125 -1.390625 0.203125q-0.203125 0 -0.4375 -0.03125q-0.234375 -0.03125 -0.453125 -0.078125q-0.21875 -0.046875 -0.40625 -0.109375q-0.171875 -0.046875 -0.25 -0.09375l0.328125 -1.421875zm12.522156 -2.875q0 0.515625 -0.34375 0.90625q-0.34375 0.375 -0.921875 0.375q-0.59375 0 -0.9375 -0.375q-0.34375 -0.390625 -0.34375 -0.90625q0 -0.5 0.34375 -0.875q0.34375 -0.390625 0.9375 -0.390625q0.578125 0 0.921875 0.390625q0.34375 0.375 0.34375 0.875zm0 -8.0q0 0.515625 -0.34375 0.90625q-0.34375 0.375 -0.921875 0.375q-0.59375 0 -0.9375 -0.375q-0.34375 -0.390625 -0.34375 -0.90625q0 -0.5 0.34375 -0.875q0.34375 -0.390625 0.9375 -0.390625q0.578125 0 0.921875 0.390625q0.34375 0.375 0.34375 0.875zm9.102142 7.765625q1.09375 0 1.609375 -0.28125q0.53125 -0.296875 0.53125 -0.921875q0 -0.640625 -0.515625 -1.015625q-0.515625 -0.390625 -1.6875 -0.859375q-0.578125 -0.234375 -1.109375 -0.46875q-0.515625 -0.234375 -0.890625 -0.5625q-0.375 -0.328125 -0.609375 -0.78125q-0.234375 -0.453125 -0.234375 -1.125q0 -1.3125 0.96875 -2.078125q0.96875 -0.765625 2.640625 -0.765625q0.421875 0 0.84375 0.046875q0.421875 0.046875 0.78125 0.109375q0.359375 0.0625 0.625 0.140625q0.28125 0.078125 0.4375 0.140625l-0.328125 1.515625q-0.28125 -0.15625 -0.890625 -0.3125q-0.609375 -0.15625 -1.46875 -0.15625q-0.734375 0 -1.296875 0.296875q-0.546875 0.28125 -0.546875 0.921875q0 0.3125 0.125 0.5625q0.125 0.25 0.375 0.453125q0.265625 0.1875 0.640625 0.359375q0.390625 0.171875 0.921875 0.359375q0.703125 0.265625 1.25 0.53125q0.546875 0.25 0.9375 0.59375q0.390625 0.34375 0.59375 0.828125q0.21875 0.484375 0.21875 1.1875q0 1.375 -1.015625 2.078125q-1.015625 0.703125 -2.90625 0.703125q-1.296875 0 -2.046875 -0.21875q-0.734375 -0.21875 -1.0 -0.34375l0.3125 -1.515625q0.3125 0.109375 0.96875 0.34375q0.671875 0.234375 1.765625 0.234375zm5.4769287 -3.65625q0 -1.3125 0.375 -2.28125q0.390625 -0.984375 1.015625 -1.625q0.625 -0.65625 1.4375 -0.96875q0.8125 -0.328125 1.671875 -0.328125q2.0 0 3.0625 1.25q1.0625 1.234375 1.0625 3.78125q0 0.109375 0 0.296875q0 0.1875 -0.015625 0.328125l-6.765625 0q0.109375 1.546875 0.890625 2.34375q0.78125 0.796875 2.4375 0.796875q0.921875 0 1.5625 -0.15625q0.640625 -0.171875 0.953125 -0.328125l0.25 1.484375q-0.3125 0.171875 -1.125 0.359375q-0.8125 0.203125 -1.828125 0.203125q-1.296875 0 -2.234375 -0.390625q-0.9375 -0.390625 -1.546875 -1.078125q-0.609375 -0.6875 -0.90625 -1.625q-0.296875 -0.9375 -0.296875 -2.0625zm6.78125 -0.96875q0.015625 -1.203125 -0.609375 -1.96875q-0.609375 -0.765625 -1.6875 -0.765625q-0.609375 0 -1.078125 0.234375q-0.46875 0.234375 -0.796875 0.625q-0.3125 0.375 -0.5 0.875q-0.171875 0.484375 -0.234375 1.0l4.90625 0zm7.850708 -4.203125q0.21875 0 0.515625 0.03125q0.296875 0.03125 0.578125 0.078125q0.296875 0.046875 0.53125 0.09375q0.234375 0.046875 0.34375 0.09375l-0.296875 1.53125q-0.21875 -0.078125 -0.703125 -0.171875q-0.484375 -0.109375 -1.234375 -0.109375q-0.5 0 -0.984375 0.109375q-0.484375 0.09375 -0.640625 0.140625l0 8.296875l-1.765625 0l0 -9.46875q0.625 -0.21875 1.5625 -0.421875q0.9375 -0.203125 2.09375 -0.203125zm11.263855 0.21875q-0.734375 2.765625 -1.734375 5.3125q-1.0 2.546875 -1.9375 4.5625l-1.59375 0q-0.921875 -2.015625 -1.921875 -4.5625q-1.0 -2.546875 -1.75 -5.3125l1.90625 0q0.234375 0.921875 0.546875 1.984375q0.3125 1.046875 0.65625 2.09375q0.359375 1.03125 0.71875 2.0q0.359375 0.96875 0.6875 1.71875q0.3125 -0.75 0.671875 -1.71875q0.375 -0.96875 0.71875 -2.0q0.359375 -1.046875 0.671875 -2.09375q0.3125 -1.0625 0.53125 -1.984375l1.828125 0zm1.0997925 4.953125q0 -1.3125 0.375 -2.28125q0.390625 -0.984375 1.015625 -1.625q0.625 -0.65625 1.4375 -0.96875q0.8125 -0.328125 1.671875 -0.328125q2.0 0 3.0625 1.25q1.0625 1.234375 1.0625 3.78125q0 0.109375 0 0.296875q0 0.1875 -0.015625 0.328125l-6.765625 0q0.109375 1.546875 0.890625 2.34375q0.78125 0.796875 2.4375 0.796875q0.921875 0 1.5625 -0.15625q0.640625 -0.171875 0.953125 -0.328125l0.25 1.484375q-0.3125 0.171875 -1.125 0.359375q-0.8125 0.203125 -1.828125 0.203125q-1.296875 0 -2.234375 -0.390625q-0.9375 -0.390625 -1.546875 -1.078125q-0.609375 -0.6875 -0.90625 -1.625q-0.296875 -0.9375 -0.296875 -2.0625zm6.78125 -0.96875q0.015625 -1.203125 -0.609375 -1.96875q-0.609375 -0.765625 -1.6875 -0.765625q-0.609375 0 -1.078125 0.234375q-0.46875 0.234375 -0.796875 0.625q-0.3125 0.375 -0.5 0.875q-0.171875 0.484375 -0.234375 1.0l4.90625 0zm7.850708 -4.203125q0.21875 0 0.515625 0.03125q0.296875 0.03125 0.578125 0.078125q0.296875 0.046875 0.53125 0.09375q0.234375 0.046875 0.34375 0.09375l-0.296875 1.53125q-0.21875 -0.078125 -0.703125 -0.171875q-0.484375 -0.109375 -1.234375 -0.109375q-0.5 0 -0.984375 0.109375q-0.484375 0.09375 -0.640625 0.140625l0 8.296875l-1.765625 0l0 -9.46875q0.625 -0.21875 1.5625 -0.421875q0.9375 -0.203125 2.09375 -0.203125z" fill-rule="nonzero"></path></g></svg>

